<svg xmlns="http://www.w3.org/2000/svg" viewBox="0 0 857 55.194">
  <defs>
    <style>
      .cls-1 {
        fill: #15a556;
        font-size: 40px;
        font-family: RobotoCondensed-Bold, Roboto Condensed;
        font-weight: 700;
      }

      .cls-2 {
        fill: none;
        stroke: #15a556;
        stroke-linecap: round;
        stroke-width: 4px;
      }
    </style>
  </defs>
  <g id="Group_3376" data-name="Group 3376" transform="translate(-255 -1173.806)">
    <text id="Beneficios" class="cls-1" transform="translate(255 1176)"><tspan x="346.449" y="42">Beneficios</tspan></text>
    <g id="Group_3258" data-name="Group 3258" transform="translate(706.974 1175.313)">
      <g id="Group_1938" data-name="Group 1938" transform="translate(17.273 0.494)">
        <path id="Path_1922" data-name="Path 1922" class="cls-2" d="M41.844,12.779C37.619,16.159,30.3,14.018,30.3,14.018s-.338-8.056,3.944-11.267c5.352-4,12.788-1.465,12.788-1.465A14.228,14.228,0,0,1,41.844,12.779Z" transform="translate(-30.289 -0.494)"/>
        <path id="Path_1923" data-name="Path 1923" class="cls-2" d="M30.3,18.562A22.333,22.333,0,0,1,39.99,10.9" transform="translate(-30.294 -5.037)"/>
      </g>
      <g id="Group_1939" data-name="Group 1939" transform="translate(0.479 0.494)">
        <path id="Path_1924" data-name="Path 1924" class="cls-2" d="M5.674,12.779c4.225,3.38,11.549,1.239,11.549,1.239s.338-8.056-3.944-11.267C7.927-1.249.491,1.286.491,1.286A14.438,14.438,0,0,0,5.674,12.779Z" transform="translate(-0.479 -0.494)"/>
        <path id="Path_1925" data-name="Path 1925" class="cls-2" d="M22.79,18.562A22.333,22.333,0,0,0,13.1,10.9" transform="translate(-5.99 -5.037)"/>
      </g>
    </g>
  </g>
</svg>
