<svg xmlns="http://www.w3.org/2000/svg" viewBox="0 0 360 39.836">
  <defs>
    <style>
      .cls-1 {
        fill: #15a556;
        font-size: 30px;
        font-family: RobotoCondensed-Bold, Roboto Condensed;
        font-weight: 700;
      }

      .cls-2 {
        fill: none;
        stroke: #15a556;
        stroke-linecap: round;
        stroke-width: 3px;
      }
    </style>
  </defs>
  <g id="Group_3494" data-name="Group 3494" transform="translate(0 -919.164)">
    <text id="Beneficios" class="cls-1" transform="translate(0 920)"><tspan x="118.462" y="31">Beneficios</tspan></text>
    <g id="Group_2044" data-name="Group 2044" transform="translate(197.521 920.318)">
      <g id="Group_1938" data-name="Group 1938" transform="translate(12.763 0.494)">
        <path id="Path_1922" data-name="Path 1922" class="cls-2" d="M38.741,9.479c-3.091,2.472-8.447.907-8.447.907s-.247-5.893,2.884-8.241c3.915-2.926,9.354-1.071,9.354-1.071A10.407,10.407,0,0,1,38.741,9.479Z" transform="translate(-30.289 -0.494)"/>
        <path id="Path_1923" data-name="Path 1923" class="cls-2" d="M30.3,16.5a16.335,16.335,0,0,1,7.088-5.6" transform="translate(-30.295 -6.612)"/>
      </g>
      <g id="Group_1939" data-name="Group 1939" transform="translate(0.479 0.494)">
        <path id="Path_1924" data-name="Path 1924" class="cls-2" d="M4.279,9.479c3.091,2.472,8.447.907,8.447.907s.247-5.893-2.884-8.241C5.927-.781.488,1.073.488,1.073A10.561,10.561,0,0,0,4.279,9.479Z" transform="translate(-0.479 -0.494)"/>
        <path id="Path_1925" data-name="Path 1925" class="cls-2" d="M20.188,16.5A16.335,16.335,0,0,0,13.1,10.9" transform="translate(-7.899 -6.612)"/>
      </g>
    </g>
  </g>
</svg>
