<svg xmlns="http://www.w3.org/2000/svg" viewBox="0 0 99.148 47.799">
  <defs>
    <style>
      .cls-1 {
        fill: #2fa766;
      }
    </style>
  </defs>
  <g id="gCxBiJ.tif_1_" transform="translate(0)">
    <g id="Group_2181" data-name="Group 2181" transform="translate(0 0)">
      <path id="Path_2270" data-name="Path 2270" class="cls-1" d="M158.883,45.424c-1.433-.419-2.865-.769-4.263-1.223a42.053,42.053,0,0,1-11.915-5.7,17.637,17.637,0,0,1-5.346-5.556,12.835,12.835,0,0,1-1.293-11.042,14.138,14.138,0,0,1,4.3-5.905,24.354,24.354,0,0,1,5-3.215,1.015,1.015,0,0,1,.489-.1c-.1.14-.245.245-.349.384a28.311,28.311,0,0,0-5.032,7.128,7.9,7.9,0,0,0-.874,3.564,3.885,3.885,0,0,0,.664,2.027,1.628,1.628,0,0,0,2.1.769,7.868,7.868,0,0,0,2.166-1.083,31.473,31.473,0,0,0,8.7-9.4,11.5,11.5,0,0,0,1.328-4.4A59.117,59.117,0,0,0,155.144.559V.1c0-.035.035-.035.07-.1a.613.613,0,0,1,.14.175,29.759,29.759,0,0,1,4.612,10.762,11.883,11.883,0,0,1-1.118,8.386,12.253,12.253,0,0,1-4.228,4.333c-1.852,1.153-3.844,2.166-5.73,3.285a22.224,22.224,0,0,0-2.97,2.027,4.469,4.469,0,0,0-1.118,5.94,14.091,14.091,0,0,0,3.564,4.158,41.211,41.211,0,0,0,10.028,6.045c.14.07.28.14.454.21A.128.128,0,0,1,158.883,45.424Z" transform="translate(-135.35 0)"/>
      <path id="Path_2271" data-name="Path 2271" class="cls-1" d="M228,83.569c-.07-.035-.1-.07-.14-.07a4.059,4.059,0,0,0-4.508-2.1,6.017,6.017,0,0,0-4.857,4.962,4.03,4.03,0,0,0,4.822,4.612,6.832,6.832,0,0,0,3.844-2.2l-.1.629c-.035.21-.07.454-.1.664-.314,1.782-.664,3.564-1.013,5.311a.871.871,0,0,1-.384.524,14.72,14.72,0,0,1-8.246.245,8.449,8.449,0,0,1-6.01-8.526,13.233,13.233,0,0,1,10.168-12.265,13.991,13.991,0,0,1,7.2.419c.245.07.384.175.349.489C228.628,78.677,228.314,81.088,228,83.569Z" transform="translate(-184.759 -48.837)"/>
      <path id="Path_2272" data-name="Path 2272" class="cls-1" d="M295.271,99.931c0-.1.035-.175.035-.28a31.8,31.8,0,0,1,.769-7.478c.14-.839.14-.839.978-.839h4.508c-.8,5.171-1.642,10.273-2.446,15.444-.175,0-.314.035-.489.035h-4.4a.645.645,0,0,1-.7-.454c-1.048-2.376-2.132-4.752-3.215-7.128a2,2,0,0,0-.384-.559c.035,2.76-.664,5.381-.978,8.072H283.6c.175-1.153.349-2.306.524-3.424.594-3.844,1.223-7.652,1.817-11.5.07-.419.21-.524.629-.524,1.433.035,2.9.035,4.333,0a.649.649,0,0,1,.7.489c1.083,2.551,2.2,5.1,3.285,7.687a2.886,2.886,0,0,0,.245.454Z" transform="translate(-231.799 -59.398)"/>
      <path id="Path_2273" data-name="Path 2273" class="cls-1" d="M197.012,55.594c-2.236-1.957-4.123-4.123-4.682-7.163a5.112,5.112,0,0,1,.769-3.844,39.4,39.4,0,0,1,2.725-3.634c1.537-1.817,3.18-3.494,4.682-5.311a21.2,21.2,0,0,0,2.062-3.145,5.736,5.736,0,0,0,.629-3.319,26.881,26.881,0,0,0-1.572-7.932.315.315,0,0,1-.035-.175c.035,0,.1-.035.1,0a21.432,21.432,0,0,1,6.674,7.478,7.969,7.969,0,0,1,.908,5.276,7.05,7.05,0,0,1-2.376,3.913c-1.782,1.572-3.7,3.04-5.521,4.577-1.118.943-2.236,1.922-3.285,2.935a7.387,7.387,0,0,0-1.957,5.032A10.247,10.247,0,0,0,197.012,55.594Z" transform="translate(-172.361 -13.698)"/>
      <path id="Path_2274" data-name="Path 2274" class="cls-1" d="M387.417,107.009h-5.87c-.07-.524-.14-1.013-.175-1.5-.035-.28-.1-.419-.419-.384-1.188,0-2.411,0-3.6.035a.575.575,0,0,0-.419.28c-.21.454-.349.909-.559,1.363a.517.517,0,0,1-.384.28h-5.416a.712.712,0,0,0-.175-.035c.454-.874.874-1.712,1.293-2.586,2.062-4.123,4.158-8.211,6.22-12.334a.759.759,0,0,1,.8-.524q2.568.052,5.136,0c.384,0,.559.1.629.524.943,4.857,1.922,9.679,2.865,14.5A1.9,1.9,0,0,1,387.417,107.009Zm-6.534-5.591c-.1-1.607-.21-3.18-.314-4.752-.07,0-.1-.035-.175-.035-.594,1.572-1.188,3.18-1.782,4.787Z" transform="translate(-288.269 -59.593)"/>
      <path id="Path_2275" data-name="Path 2275" class="cls-1" d="M347.621,91.954c-.734,1.328-1.433,2.621-2.131,3.913a4.913,4.913,0,0,0-2.76-1.118,3.6,3.6,0,0,0-1.223.21,1.033,1.033,0,0,0-.454.734c0,.175.349.454.594.524a14.152,14.152,0,0,0,1.747.419c3.424.8,3.948,3.18,2.865,5.835a5.95,5.95,0,0,1-3.11,3.145c-3.32,1.572-6.534,1.013-9.749-.454.8-1.468,1.607-2.9,2.376-4.333.419.314.8.594,1.223.874a3.974,3.974,0,0,0,2.411.7,2.693,2.693,0,0,0,1.258-.419.679.679,0,0,0-.28-1.258c-.629-.175-1.258-.245-1.852-.384-2.865-.629-3.914-2.621-2.83-5.346a6.541,6.541,0,0,1,2.481-3,8.636,8.636,0,0,1,8.84-.454A4.358,4.358,0,0,0,347.621,91.954Z" transform="translate(-264.197 -58.899)"/>
      <path id="Path_2276" data-name="Path 2276" class="cls-1" d="M268.2,91.4c-.21,1.258-.384,2.376-.559,3.529-.629,3.844-1.223,7.722-1.817,11.566-.035.245-.1.384-.384.384H260.41c-.07,0-.14-.035-.21-.035.245-1.5.454-2.97.7-4.438.559-3.424,1.083-6.884,1.642-10.308.1-.664.1-.664.769-.664h4.263A3.026,3.026,0,0,1,268.2,91.4Z" transform="translate(-216.575 -59.463)"/>
    </g>
  </g>
</svg>
