<svg xmlns="http://www.w3.org/2000/svg" xmlns:xlink="http://www.w3.org/1999/xlink" viewBox="0 0 1427.77 491.026">
  <defs>
    <style>
      .cls-1 {
        clip-path: url(#clip-path);
      }

      .cls-2 {
        clip-path: url(#clip-path-2);
      }

      .cls-3 {
        fill: #a3d170;
      }

      .cls-4 {
        clip-path: url(#clip-path-3);
      }

      .cls-5 {
        fill: none;
        opacity: 0.75;
      }

      .cls-6 {
        fill: url(#linear-gradient);
      }

      .cls-7 {
        opacity: 0.2;
      }

      .cls-8 {
        fill: #fff;
      }

      .cls-9 {
        fill: #b7c847;
      }

      .cls-10 {
        fill: url(#linear-gradient-2);
      }
    </style>
    <clipPath id="clip-path">
      <rect id="Rectangle_554" data-name="Rectangle 554" width="439.12" height="107.226"/>
    </clipPath>
    <clipPath id="clip-path-2">
      <rect id="Rectangle_555" data-name="Rectangle 555" width="1424.816" height="107.226"/>
    </clipPath>
    <clipPath id="clip-path-3">
      <rect id="Rectangle_557" data-name="Rectangle 557" width="1424.038" height="107.226"/>
    </clipPath>
    <linearGradient id="linear-gradient" x1="0.038" y1="1" x2="1" y2="0.935" gradientUnits="objectBoundingBox">
      <stop offset="0" stop-color="#2aa566"/>
      <stop offset="1" stop-color="#a6d270"/>
    </linearGradient>
    <linearGradient id="linear-gradient-2" y1="0.5" x2="1" y2="0.5" gradientUnits="objectBoundingBox">
      <stop offset="0" stop-color="#2ba566"/>
      <stop offset="1" stop-color="#a6d270"/>
    </linearGradient>
  </defs>
  <g id="Group_3724" data-name="Group 3724" transform="translate(33.739 -658.974)">
    <g id="Group_3255" data-name="Group 3255" transform="translate(-59.139 626.774)">
      <g id="Group_3220" data-name="Group 3220" transform="translate(28.353 32.2)">
        <g id="Group_3165" data-name="Group 3165" class="cls-2">
          <path id="Path_4003" data-name="Path 4003" class="cls-3" d="M18.9,53.994S270.027,14.66,582.945,66.686c246.831,41.053,437.545,74.986,920.3,62.425l-27.15,23.514H35.421Z" transform="translate(-49.96 -34.756)"/>
        </g>
        <g id="Group_3167" data-name="Group 3167" class="cls-4">
          <path id="Path_4092" data-name="Path 4092" class="cls-5" d="M0,0H1538.965V115.026H0Z" transform="translate(-80.531 8.801)"/>
          <g id="Group_3166" data-name="Group 3166" transform="translate(-53.5 13.093)">
            <path id="Path_4004" data-name="Path 4004" class="cls-6" d="M12.1,77.255S95.984,53.126,248.229,52.2c147.952-.925,170.079-.661,503.631,51.7s738.769,29.88,738.769,29.88v21.088H24.319Z" transform="translate(-12.1 -52.005)"/>
          </g>
        </g>
      </g>
      <g id="Group_3228" data-name="Group 3228" class="cls-7" transform="translate(173.573 121.974)">
        <path id="Path_4063" data-name="Path 4063" class="cls-8" d="M170.9,168" transform="translate(-170.9 -168)"/>
      </g>
      <path id="Path_4067" data-name="Path 4067" class="cls-9" d="M25.4,174.5" transform="translate(0 -48.23)"/>
    </g>
    <path id="Path_4165" data-name="Path 4165" class="cls-10" d="M-31,0H1394V386H-31Z" transform="translate(0 764)"/>
  </g>
</svg>
