<svg xmlns="http://www.w3.org/2000/svg" xmlns:xlink="http://www.w3.org/1999/xlink" viewBox="0 0 383.076 889.762">
  <defs>
    <style>
      .cls-1 {
        clip-path: url(#clip-path);
      }

      .cls-2 {
        clip-path: url(#clip-path-2);
      }

      .cls-3 {
        fill: #a3d170;
      }

      .cls-4 {
        fill: none;
        opacity: 0.75;
      }

      .cls-5 {
        fill: url(#linear-gradient);
      }

      .cls-6 {
        opacity: 0.2;
      }

      .cls-7 {
        fill: #fff;
      }

      .cls-8 {
        fill: #b7c847;
      }

      .cls-9 {
        fill: url(#linear-gradient-2);
      }
    </style>
    <clipPath id="clip-path">
      <rect id="Rectangle_554" data-name="Rectangle 554" width="120.383" height="77.961"/>
    </clipPath>
    <clipPath id="clip-path-2">
      <rect id="Rectangle_555" data-name="Rectangle 555" width="382.786" height="77.961"/>
    </clipPath>
    <linearGradient id="linear-gradient" x1="0.038" y1="1" x2="1" y2="0.935" gradientUnits="objectBoundingBox">
      <stop offset="0" stop-color="#2da666"/>
      <stop offset="1" stop-color="#acd579"/>
    </linearGradient>
    <linearGradient id="linear-gradient-2" x1="1" y1="0.5" x2="-0.012" y2="0.5" gradientUnits="objectBoundingBox">
      <stop offset="0" stop-color="#acd579"/>
      <stop offset="1" stop-color="#2ba566"/>
    </linearGradient>
  </defs>
  <g id="Group_3725" data-name="Group 3725" transform="translate(6.785 -276.238)">
    <g id="Group_3639" data-name="Group 3639" transform="translate(-26.387 253.14)">
      <g id="Group_3220" data-name="Group 3220" transform="translate(19.602 23.098)">
        <g id="Group_3165" data-name="Group 3165" class="cls-2">
          <path id="Path_4003" data-name="Path 4003" class="cls-3" d="M18.9,50.1s67.467-28.6,151.534,9.228c66.313,29.848,110.255,54.842,239.951,45.71v16.775H23.339Z" transform="translate(-27.245 -36.117)"/>
        </g>
        <g id="Group_3167" data-name="Group 3167" class="cls-2">
          <path id="Path_4092" data-name="Path 4092" class="cls-4" d="M0,0H413.679V83.633H0Z" transform="translate(-21.647 6.399)"/>
          <g id="Group_3166" data-name="Group 3166" transform="translate(-14.381 9.519)">
            <path id="Path_4004" data-name="Path 4004" class="cls-5" d="M12.1,70.364S34.648,52.82,75.572,52.147c39.77-.673,45.718-.481,135.378,37.587s198.584,21.725,198.584,21.725v15.333H15.385Z" transform="translate(-12.1 -52.005)"/>
          </g>
        </g>
      </g>
      <g id="Group_3228" data-name="Group 3228" class="cls-6" transform="translate(65.321 89.852)">
        <path id="Path_4063" data-name="Path 4063" class="cls-7" d="M170.9,168" transform="translate(-170.9 -168)"/>
      </g>
      <path id="Path_4067" data-name="Path 4067" class="cls-8" d="M25.4,174.5" transform="translate(0 -81.889)"/>
    </g>
    <rect id="Rectangle_587" data-name="Rectangle 587" class="cls-9" width="383" height="819" transform="translate(-6.709 347)"/>
  </g>
</svg>
