<svg xmlns="http://www.w3.org/2000/svg" xmlns:xlink="http://www.w3.org/1999/xlink" viewBox="0 0 115.29 119.89"><defs><style>.cls-1{font-size:15.21px;font-family:LemonMilklight, Lemon/Milk light;}.cls-1,.cls-10{fill:#19a556;}.cls-2{fill:url(#linear-gradient);}.cls-3{fill:url(#linear-gradient-2);}.cls-4{fill:url(#linear-gradient-3);}.cls-5{fill:url(#linear-gradient-4);}.cls-6,.cls-8{opacity:0.4;}.cls-6{fill:url(#linear-gradient-7);}.cls-7{fill:url(#linear-gradient-8);}.cls-8{fill:url(#linear-gradient-9);}.cls-9{fill:#fff;}.cls-11{fill:#4c94d0;}.cls-12{fill:#f89c4d;}</style><linearGradient id="linear-gradient" x1="2.65" y1="42.2" x2="102.29" y2="42.2" gradientUnits="userSpaceOnUse"><stop offset="0" stop-color="#f3f3f3"/><stop offset="0.16" stop-color="#eff2f0"/><stop offset="0.3" stop-color="#e5eee7"/><stop offset="0.43" stop-color="#d3e8d9"/><stop offset="0.56" stop-color="#b9dfc4"/><stop offset="0.69" stop-color="#98d3a9"/><stop offset="0.81" stop-color="#70c588"/><stop offset="0.93" stop-color="#41b462"/><stop offset="1" stop-color="#24aa4a"/></linearGradient><linearGradient id="linear-gradient-2" y1="26.27" x2="115.29" y2="26.27" gradientUnits="userSpaceOnUse"><stop offset="0" stop-color="#f3f3f3"/><stop offset="0.14" stop-color="#deebe1"/><stop offset="0.42" stop-color="#a6d8b4"/><stop offset="0.82" stop-color="#4eb96c"/><stop offset="1" stop-color="#24aa4a"/></linearGradient><linearGradient id="linear-gradient-3" x1="1.59" y1="110.77" x2="106.22" y2="110.77" xlink:href="#linear-gradient-2"/><linearGradient id="linear-gradient-4" x1="1.59" y1="110.77" x2="106.22" y2="110.77" xlink:href="#linear-gradient-2"/><linearGradient id="linear-gradient-7" x1="1.59" y1="100.66" x2="7.23" y2="100.66" gradientUnits="userSpaceOnUse"><stop offset="0" stop-color="#f3f3f3"/><stop offset="1" stop-color="#24aa4a"/></linearGradient><linearGradient id="linear-gradient-8" x1="1.59" y1="107.96" x2="106.22" y2="107.96" xlink:href="#linear-gradient-2"/><linearGradient id="linear-gradient-9" x1="1.59" y1="107.96" x2="7.23" y2="107.96" xlink:href="#linear-gradient-7"/></defs><title>favicon</title><g id="Capa_2" data-name="Capa 2"><g id="Layer_1" data-name="Layer 1"><text class="cls-1" transform="translate(4.07 87.96)">Mi Casa Verde</text><path class="cls-2" d="M2.65,68.85S30.51,80.2,65.36,66.73c15.5-6,29.24-15.85,34.17-24.66,9.86-17.6-9.87-31-9.87-31s9.15,14.53,2.47,26.78c-6.34,11.62-25.37,24.66-53.2,31C20.77,71.27,21.89,70.84,2.65,68.85Z"/><path class="cls-3" d="M57.9,0a2.75,2.75,0,0,1,1.49.62L115.1,48.39c1.05.91-2.43,4.93-3.48,4l-54-46.26-54,46.26c-1.05.91-4.54-3.11-3.48-4L21.83,29.86V.1H32.45V20.74L55.91.63a2.71,2.71,0,0,1,2-.62Z"/><rect class="cls-4" x="66.06" y="107.95" width="6.34" height="5.64"/><polygon class="cls-5" points="7.23 107.95 7.23 107.97 1.59 107.97 1.59 113.59 13.22 113.59 13.22 107.95 7.23 107.95"/><rect class="cls-4" x="95.3" y="107.95" width="10.92" height="5.64"/><rect class="cls-4" x="36.12" y="107.95" width="7.05" height="5.64"/><polygon class="cls-6" points="7.23 107.95 7.23 93.35 1.59 93.35 1.59 107.97 1.59 107.97 1.59 107.95 7.23 107.95"/><rect class="cls-7" x="1.59" y="107.95" width="5.64" height="0.02"/><rect class="cls-8" x="1.59" y="107.95" width="5.64" height="0.02"/><rect class="cls-9" x="52.12" y="113.46" width="5.21" height="0.13"/><path class="cls-10" d="M54.72,119.2a1.28,1.28,0,0,0,.84-.33H53.89A1.25,1.25,0,0,0,54.72,119.2Z"/><path class="cls-10" d="M54.72,98.86a6,6,0,0,1,5.87,4.51h.53a6.58,6.58,0,0,0-12.79,0h.53A6,6,0,0,1,54.72,98.86Z"/><path class="cls-10" d="M49,108h.58a6.83,6.83,0,0,1-.83-3.39,5.17,5.17,0,0,1,.13-1.19h-.53a5.79,5.79,0,0,0-.12,1.19A7.35,7.35,0,0,0,49,108Z"/><path class="cls-10" d="M56,117.89v-.26h.52a1.3,1.3,0,0,0,1.3-1.3v-2.74h-.52V115H52.12v-1.44H51.6v2.74a1.3,1.3,0,0,0,1.3,1.3h.52v.26a1.28,1.28,0,0,0,.47,1h1.67A1.28,1.28,0,0,0,56,117.89Zm-3.13-.78a.77.77,0,0,1-.78-.78v-.78h5.21v.78a.77.77,0,0,1-.78.78Zm2.61.78a.79.79,0,1,1-1.57,0v-.26h1.57Z"/><path class="cls-10" d="M60.72,104.56a6.83,6.83,0,0,1-.83,3.39h.58a7.48,7.48,0,0,0,.77-3.39,6.58,6.58,0,0,0-.12-1.19h-.53A5.78,5.78,0,0,1,60.72,104.56Z"/><path class="cls-10" d="M59.07,109.23a7.1,7.1,0,0,0-1.73,3.71H52.11a7,7,0,0,0-1.74-3.71,13.32,13.32,0,0,1-.81-1.28H49a10.88,10.88,0,0,0,1,1.58c.85,1.21,1.65,2.18,1.65,3.67v.39h.52v-.13h5.21v.13h.52v-.39c0-1.49.79-2.46,1.65-3.67a13,13,0,0,0,1-1.58h-.58A11.67,11.67,0,0,1,59.07,109.23Z"/><path class="cls-11" d="M85.53,118.58a5.9,5.9,0,0,1-2.14-.41H82.24a6.42,6.42,0,0,0,6.59,0H87.68A5.92,5.92,0,0,1,85.53,118.58Z"/><path class="cls-11" d="M85.53,98.75a44.91,44.91,0,0,1,3.14,3.92h.61a44.72,44.72,0,0,0-3.56-4.47.28.28,0,0,0-.15-.08.24.24,0,0,0-.22.08,44.72,44.72,0,0,0-3.56,4.47h.61A46.73,46.73,0,0,1,85.53,98.75Z"/><path class="cls-11" d="M79.31,113.59H78.8a7.72,7.72,0,0,0,3.44,4.58h1.15A7,7,0,0,1,79.31,113.59Z"/><path class="cls-11" d="M79.56,108a22.18,22.18,0,0,1,2.84-5.28h-.61A20.92,20.92,0,0,0,79,108Z"/><path class="cls-11" d="M92.27,113.59h-.51a7,7,0,0,1-4.08,4.58h1.15A7.72,7.72,0,0,0,92.27,113.59Z"/><path class="cls-11" d="M91.51,108H92a20.92,20.92,0,0,0-2.76-5.28h-.61A22.18,22.18,0,0,1,91.51,108Z"/><path class="cls-11" d="M87.59,115.33a.26.26,0,0,0-.06.34.24.24,0,0,0,.34.06,5.27,5.27,0,0,0,1.72-2.14H89A4.7,4.7,0,0,1,87.59,115.33Z"/><path class="cls-11" d="M79.56,108H79a10.55,10.55,0,0,0-.56,3.27,8.43,8.43,0,0,0,.33,2.37h.51a8,8,0,0,1-.36-2.37A10.23,10.23,0,0,1,79.56,108Z"/><path class="cls-11" d="M92.12,111.22a8,8,0,0,1-.36,2.37h.51a8.43,8.43,0,0,0,.33-2.37A10.55,10.55,0,0,0,92,108h-.53A10.23,10.23,0,0,1,92.12,111.22Z"/><path class="cls-11" d="M90.15,110.65a.24.24,0,0,0-.24-.23.26.26,0,0,0-.25.27,5.44,5.44,0,0,1-.65,2.9h.58A5.88,5.88,0,0,0,90.15,110.65Z"/><path class="cls-12" d="M21.52,118.86l-.7-.34H19.57a11.61,11.61,0,0,0,2.77,1.34.3.3,0,0,0,.38-.19.31.31,0,0,0,0-.28q-.37-.45-.66-.87H21.3Z"/><path class="cls-12" d="M23.81,99.64A43.77,43.77,0,0,1,27.22,103H28a44.55,44.55,0,0,0-4.19-4.18.29.29,0,0,0-.25-.07.3.3,0,0,0-.25.25,14.86,14.86,0,0,1-1.21,4h.61A15.86,15.86,0,0,0,23.81,99.64Z"/><path class="cls-12" d="M27,119.05a5.83,5.83,0,0,0,.43-.53h-.75a8,8,0,0,1-.8.83.3.3,0,0,0,0,.43.29.29,0,0,0,.28.1,7,7,0,0,0,3.24-1.36H28.17A6.44,6.44,0,0,1,27,119.05Z"/><path class="cls-12" d="M23,113.86l.37.22.15.06a.28.28,0,0,0,.25,0,3.94,3.94,0,0,0,.53-.51H22.66C22.81,113.7,22.94,113.8,23,113.86Z"/><path class="cls-12" d="M21.27,113.59H20.6a4.76,4.76,0,0,0-.39,1.68,5.71,5.71,0,0,0,1.09,3.25H22a5.28,5.28,0,0,1-1.19-3.23A4.51,4.51,0,0,1,21.27,113.59Z"/><path class="cls-12" d="M18.27,108h.79l.77-.81A14.54,14.54,0,0,0,22.74,103h-.61a13.63,13.63,0,0,1-2.74,3.7C19,107.13,18.62,107.53,18.27,108Z"/><path class="cls-12" d="M29.9,106.68c.23.43.43.85.61,1.27h.65a13,13,0,0,0-.74-1.57A19.92,19.92,0,0,0,28,103h-.81A20.33,20.33,0,0,1,29.9,106.68Z"/><path class="cls-12" d="M18.67,117.05A5.25,5.25,0,0,1,17,113.59h-.6a5.81,5.81,0,0,0,1.83,3.89,8.89,8.89,0,0,0,1.32,1h1.25A8.43,8.43,0,0,1,18.67,117.05Z"/><path class="cls-12" d="M28.77,114.75a5.23,5.23,0,0,0-.11-1.16h-.61a4.72,4.72,0,0,1,.12,1.16,6,6,0,0,1-1.52,3.77h.75A6.38,6.38,0,0,0,28.77,114.75Z"/><path class="cls-12" d="M32.08,113.59h-.62a6.18,6.18,0,0,1-3.29,4.93h1.17A6.68,6.68,0,0,0,32.08,113.59Z"/><path class="cls-12" d="M19.06,108h-.79a7.65,7.65,0,0,0-1.87,5.36,2.46,2.46,0,0,0,0,.28H17c0-.09,0-.18,0-.28A7,7,0,0,1,19.06,108Z"/><path class="cls-12" d="M31.49,113.26c0,.11,0,.22,0,.33h.62c0-.11,0-.22,0-.33a14,14,0,0,0-.93-5.31h-.65A13.23,13.23,0,0,1,31.49,113.26Z"/><path class="cls-12" d="M24.93,108.21a.34.34,0,0,0-.08.26,6.28,6.28,0,0,1-.49,4,2.94,2.94,0,0,1-.76,1l-.24-.14a18,18,0,0,1-1.64-1.24.29.29,0,0,0-.42,0,.21.21,0,0,0,0,.06c-.22.44-.46.89-.66,1.38h.67c.12-.26.24-.52.38-.79.38.32.73.58,1,.79h1.68a4.9,4.9,0,0,0,.56-.81,6.69,6.69,0,0,0,.63-3.48,9.65,9.65,0,0,1,2.52,4.29h.61a10.56,10.56,0,0,0-3.3-5.39A.31.31,0,0,0,24.93,108.21Z"/></g></g></svg>