<svg xmlns="http://www.w3.org/2000/svg" viewBox="0 0 76.229 75.496">
  <defs>
    <style>
      .cls-1 {
        fill: #17713a;
      }

      .cls-2 {
        fill: #acd579;
      }
    </style>
  </defs>
  <g id="Group_2848" data-name="Group 2848" transform="translate(0)">
    <g id="Group_2845" data-name="Group 2845" transform="translate(5.872)">
      <rect id="Rectangle_511" data-name="Rectangle 511" class="cls-1" width="64.371" height="15.472"/>
      <g id="Group_2844" data-name="Group 2844" transform="translate(2.512 3.316)">
        <circle id="Ellipse_39" data-name="Ellipse 39" class="cls-2" cx="4.743" cy="4.743" r="4.743" transform="translate(0 9.365) rotate(-80.811)"/>
        <path id="Path_3684" data-name="Path 3684" class="cls-2" d="M567.486,324.544a4.743,4.743,0,1,1-4.743-4.743A4.631,4.631,0,0,1,567.486,324.544Z" transform="translate(-542.443 -319.051)"/>
        <path id="Path_3685" data-name="Path 3685" class="cls-2" d="M580.686,324.544a4.743,4.743,0,1,1-4.743-4.743A4.631,4.631,0,0,1,580.686,324.544Z" transform="translate(-540.737 -319.051)"/>
        <rect id="Rectangle_512" data-name="Rectangle 512" class="cls-2" width="14.794" height="9.486" transform="translate(44.015 0.637)"/>
      </g>
    </g>
    <g id="Group_2847" data-name="Group 2847" transform="translate(0 15.359)">
      <rect id="Rectangle_513" data-name="Rectangle 513" class="cls-1" width="76.229" height="56.24"/>
      <g id="Group_2846" data-name="Group 2846" transform="translate(8.541 1.038)">
        <path id="Path_3731" data-name="Path 3731" class="cls-2" d="M22.7,0A22.7,22.7,0,1,1,0,22.7,22.7,22.7,0,0,1,22.7,0Z" transform="translate(0 17.006) rotate(-21.999)"/>
        <path id="Path_3686" data-name="Path 3686" class="cls-1" d="M591.016,359.008A18.408,18.408,0,1,1,572.608,340.6,18.411,18.411,0,0,1,591.016,359.008Z" transform="translate(-543.091 -329.441)"/>
        <rect id="Rectangle_514" data-name="Rectangle 514" class="cls-2" width="4.066" height="9.035" transform="translate(50.748 25.05)"/>
      </g>
    </g>
  </g>
</svg>
