<svg xmlns="http://www.w3.org/2000/svg" viewBox="0 0 115.29 119.89"><defs><style>.cls-1,.cls-2{fill:#fff;}.cls-2{opacity:0.4;}</style></defs><title>logo-blanco-micasa</title><g id="Capa_2" data-name="Capa 2"><g id="Layer_1" data-name="Layer 1"><path class="cls-1" d="M10.21,84.59l5.41-8.27V87.49H14.14V81.21l-3.93,6-3.92-6v6.28H4.81V76.32Z"/><path class="cls-1" d="M17.09,76.44h1.48v11H17.09Z"/><path class="cls-1" d="M29.66,76.38a6.09,6.09,0,0,1,1.13.1,5.59,5.59,0,0,1,1.05.34,6.24,6.24,0,0,1,1,.52c.18.13.35.25.49.37l-1.06,1.06a3.85,3.85,0,0,0-1-.6,3.91,3.91,0,0,0-1.56-.31,4,4,0,0,0-1.58.31,4.06,4.06,0,0,0-1.32.91,3.92,3.92,0,0,0-.9,1.33h0a4,4,0,0,0,.91,4.48,4,4,0,0,0,1.32.9,4.31,4.31,0,0,0,3.16,0,4.08,4.08,0,0,0,1-.6l1,1.06a4.83,4.83,0,0,1-.49.37,5.66,5.66,0,0,1-1,.53,5,5,0,0,1-1.05.32,5.22,5.22,0,0,1-1.13.11,5.45,5.45,0,0,1-2.15-.41,5.88,5.88,0,0,1-3.05-3,5.82,5.82,0,0,1,0-4.29A5.76,5.76,0,0,1,25.71,78a5.48,5.48,0,0,1,1.81-1.24,5.26,5.26,0,0,1,1.55-.38Z"/><path class="cls-1" d="M43.39,87.49H41.8L41,85.67h-4.7l-.82,1.82H33.89l4.75-11.16Zm-4.76-3h1.81c-.3-.7-.6-1.44-.9-2.24s-.6-1.54-.9-2.24c-.3.7-.6,1.44-.91,2.24s-.6,1.54-.9,2.24Z"/><path class="cls-1" d="M47.89,85.94a2.16,2.16,0,0,0,.59-.34,1.6,1.6,0,0,0,.43-.53,1.41,1.41,0,0,0,.16-.67,1.16,1.16,0,0,0-.12-.55,1.48,1.48,0,0,0-.34-.44,2.18,2.18,0,0,0-.5-.34,4.65,4.65,0,0,0-.57-.26l-.6-.18a5.7,5.7,0,0,1-1.3-.53,3.38,3.38,0,0,1-1-.84,2.85,2.85,0,0,1-.45-.8,2.58,2.58,0,0,1-.16-.92,3.22,3.22,0,0,1,.24-1.24,3.34,3.34,0,0,1,.69-1,3.13,3.13,0,0,1,1-.68,3,3,0,0,1,1.23-.25,3.15,3.15,0,0,1,2.1.78,3.19,3.19,0,0,1,1,1.54L48.81,79a1.69,1.69,0,0,0-.4-.62,1.63,1.63,0,0,0-1.18-.5,1.61,1.61,0,0,0-.65.13,1.79,1.79,0,0,0-.54.37,1.68,1.68,0,0,0-.37.54,1.61,1.61,0,0,0-.13.65,1.33,1.33,0,0,0,.07.45,1.43,1.43,0,0,0,.19.37,1.59,1.59,0,0,0,.29.29,3.48,3.48,0,0,0,.76.42l.41.15.4.13.36.11a6.65,6.65,0,0,1,.77.34,5,5,0,0,1,.7.47,3.52,3.52,0,0,1,.57.59,2.7,2.7,0,0,1,.39.71,2.64,2.64,0,0,1,.14.84,2.85,2.85,0,0,1-.28,1.25,3.22,3.22,0,0,1-.75,1,3.51,3.51,0,0,1-1.08.67,3.26,3.26,0,0,1-1.26.25,3.49,3.49,0,0,1-2.54-1.11A3.14,3.14,0,0,1,44,85.28L45.46,85a1.76,1.76,0,0,0,.7.81,1.9,1.9,0,0,0,1.05.32A2.32,2.32,0,0,0,47.89,85.94Z"/><path class="cls-1" d="M60.68,87.49H59.1l-.82-1.82h-4.7l-.82,1.82H51.18l4.75-11.16Zm-4.75-3h1.81c-.31-.7-.61-1.44-.91-2.24s-.59-1.54-.89-2.24c-.3.7-.61,1.44-.91,2.24s-.61,1.54-.91,2.24Z"/><path class="cls-1" d="M70.41,87.58,65.72,76.44h1.53l3.15,7.61,3.16-7.61h1.56Z"/><path class="cls-1" d="M82.44,76.42v1.47H77.63v3.34h3.61V82.7H77.63v3.35h4.81v1.47H76.15V76.42Z"/><path class="cls-1" d="M83.47,76.44h3.45a4.08,4.08,0,0,1,1.56.29,3.74,3.74,0,0,1,2,1.88,3.26,3.26,0,0,1,.24,1.31v.31a3.21,3.21,0,0,1-.17,1,4.09,4.09,0,0,1-.51,1,2.67,2.67,0,0,1-.55.59,2.83,2.83,0,0,1-.68.35l-.52.21.3.48L91,87.49H89.12L86.6,83.62H85v3.87H83.48Zm3.68,5.7h0A2.2,2.2,0,0,0,88,82a2.44,2.44,0,0,0,.63-.47,2.16,2.16,0,0,0,.48-.72A2.19,2.19,0,0,0,89.2,80a2.28,2.28,0,0,0-.14-.8,2.5,2.5,0,0,0-.47-.67h0a2.05,2.05,0,0,0-.81-.46,3.24,3.24,0,0,0-1-.16H85v4.24h2.19Z"/><path class="cls-1" d="M95,76.44a5.86,5.86,0,0,1,1.91.42,5.48,5.48,0,0,1,1.83,1.2h0a4.74,4.74,0,0,1,1.1,1.77,6.53,6.53,0,0,1,.36,2.13,6.35,6.35,0,0,1-.36,2.13,4.74,4.74,0,0,1-1.1,1.77h0a5.29,5.29,0,0,1-1.83,1.2,5.77,5.77,0,0,1-2.22.42H92v-11h3ZM94.73,86a4.67,4.67,0,0,0,1.62-.28,3.52,3.52,0,0,0,1.3-.83,3.81,3.81,0,0,0,.84-1.32,5.06,5.06,0,0,0,0-3.26A3.87,3.87,0,0,0,97.65,79a3.92,3.92,0,0,0-1.31-.84,4.46,4.46,0,0,0-1.63-.28H93.46V86h1.27Z"/><path class="cls-1" d="M107.56,76.42v1.47h-4.81v3.34h3.61V82.7h-3.61v3.35h4.81v1.47h-6.29V76.42Z"/><path class="cls-1" d="M2.65,68.85S30.51,80.2,65.36,66.73c15.5-6,29.24-15.85,34.17-24.66,9.86-17.6-9.87-31-9.87-31s9.15,14.53,2.47,26.78c-6.34,11.62-25.37,24.66-53.2,31C20.77,71.27,21.89,70.84,2.65,68.85Z"/><path class="cls-1" d="M57.9,0a2.75,2.75,0,0,1,1.49.62L115.1,48.39c1.05.91-2.43,4.93-3.48,4l-54-46.26-54,46.26c-1.05.91-4.54-3.11-3.48-4L21.83,29.86V.1H32.45V20.74L55.91.63a2.71,2.71,0,0,1,2-.62Z"/><rect class="cls-1" x="66.06" y="107.95" width="6.34" height="5.64"/><polygon class="cls-1" points="7.23 107.95 7.23 107.97 1.59 107.97 1.59 113.59 13.22 113.59 13.22 107.95 7.23 107.95"/><rect class="cls-1" x="95.3" y="107.95" width="10.92" height="5.64"/><rect class="cls-1" x="36.12" y="107.95" width="7.05" height="5.64"/><polygon class="cls-2" points="7.23 107.95 7.23 93.35 1.59 93.35 1.59 107.97 1.59 107.97 1.59 107.95 7.23 107.95"/><rect class="cls-1" x="1.59" y="93.35" width="5.81" height="14.76"/><rect class="cls-1" x="1.59" y="107.95" width="5.64" height="0.02"/><rect class="cls-2" x="1.59" y="107.95" width="5.64" height="0.02"/><rect class="cls-1" x="52.12" y="113.46" width="5.21" height="0.13"/><path class="cls-1" d="M54.72,119.2a1.28,1.28,0,0,0,.84-.33H53.89A1.25,1.25,0,0,0,54.72,119.2Z"/><path class="cls-1" d="M54.72,98.86a6,6,0,0,1,5.87,4.51h.53a6.58,6.58,0,0,0-12.79,0h.53A6,6,0,0,1,54.72,98.86Z"/><path class="cls-1" d="M49,108h.58a6.83,6.83,0,0,1-.83-3.39,5.17,5.17,0,0,1,.13-1.19h-.53a5.79,5.79,0,0,0-.12,1.19A7.35,7.35,0,0,0,49,108Z"/><path class="cls-1" d="M56,117.89v-.26h.52a1.3,1.3,0,0,0,1.3-1.3v-2.74h-.52V115H52.12v-1.44H51.6v2.74a1.3,1.3,0,0,0,1.3,1.3h.52v.26a1.28,1.28,0,0,0,.47,1h1.67A1.28,1.28,0,0,0,56,117.89Zm-3.13-.78a.77.77,0,0,1-.78-.78v-.78h5.21v.78a.77.77,0,0,1-.78.78Zm2.61.78a.79.79,0,1,1-1.57,0v-.26h1.57Z"/><path class="cls-1" d="M60.72,104.56a6.83,6.83,0,0,1-.83,3.39h.58a7.48,7.48,0,0,0,.77-3.39,6.58,6.58,0,0,0-.12-1.19h-.53A5.78,5.78,0,0,1,60.72,104.56Z"/><path class="cls-1" d="M59.07,109.23a7.1,7.1,0,0,0-1.73,3.71H52.11a7,7,0,0,0-1.74-3.71,13.32,13.32,0,0,1-.81-1.28H49a10.88,10.88,0,0,0,1,1.58c.85,1.21,1.65,2.18,1.65,3.67v.39h.52v-.13h5.21v.13h.52v-.39c0-1.49.79-2.46,1.65-3.67a13,13,0,0,0,1-1.58h-.58A11.67,11.67,0,0,1,59.07,109.23Z"/><path class="cls-1" d="M85.53,118.58a5.9,5.9,0,0,1-2.14-.41H82.24a6.42,6.42,0,0,0,6.59,0H87.68A5.92,5.92,0,0,1,85.53,118.58Z"/><path class="cls-1" d="M85.53,98.75a44.91,44.91,0,0,1,3.14,3.92h.61a44.72,44.72,0,0,0-3.56-4.47.28.28,0,0,0-.15-.08.24.24,0,0,0-.22.08,44.72,44.72,0,0,0-3.56,4.47h.61A46.73,46.73,0,0,1,85.53,98.75Z"/><path class="cls-1" d="M79.31,113.59H78.8a7.72,7.72,0,0,0,3.44,4.58h1.15A7,7,0,0,1,79.31,113.59Z"/><path class="cls-1" d="M79.56,108a22.18,22.18,0,0,1,2.84-5.28h-.61A20.92,20.92,0,0,0,79,108Z"/><path class="cls-1" d="M92.27,113.59h-.51a7,7,0,0,1-4.08,4.58h1.15A7.72,7.72,0,0,0,92.27,113.59Z"/><path class="cls-1" d="M91.51,108H92a20.92,20.92,0,0,0-2.76-5.28h-.61A22.18,22.18,0,0,1,91.51,108Z"/><path class="cls-1" d="M87.59,115.33a.26.26,0,0,0-.06.34.24.24,0,0,0,.34.06,5.27,5.27,0,0,0,1.72-2.14H89A4.7,4.7,0,0,1,87.59,115.33Z"/><path class="cls-1" d="M79.56,108H79a10.55,10.55,0,0,0-.56,3.27,8.43,8.43,0,0,0,.33,2.37h.51a8,8,0,0,1-.36-2.37A10.23,10.23,0,0,1,79.56,108Z"/><path class="cls-1" d="M92.12,111.22a8,8,0,0,1-.36,2.37h.51a8.43,8.43,0,0,0,.33-2.37A10.55,10.55,0,0,0,92,108h-.53A10.23,10.23,0,0,1,92.12,111.22Z"/><path class="cls-1" d="M90.15,110.65a.24.24,0,0,0-.24-.23.26.26,0,0,0-.25.27,5.44,5.44,0,0,1-.65,2.9h.58A5.88,5.88,0,0,0,90.15,110.65Z"/><path class="cls-1" d="M21.52,118.86l-.7-.34H19.57a11.61,11.61,0,0,0,2.77,1.34.3.3,0,0,0,.38-.19.31.31,0,0,0,0-.28q-.37-.45-.66-.87H21.3Z"/><path class="cls-1" d="M23.81,99.64A43.77,43.77,0,0,1,27.22,103H28a44.55,44.55,0,0,0-4.19-4.18.29.29,0,0,0-.25-.07.3.3,0,0,0-.25.25,14.86,14.86,0,0,1-1.21,4h.61A15.86,15.86,0,0,0,23.81,99.64Z"/><path class="cls-1" d="M27,119.05a5.83,5.83,0,0,0,.43-.53h-.75a8,8,0,0,1-.8.83.3.3,0,0,0,0,.43.29.29,0,0,0,.28.1,7,7,0,0,0,3.24-1.36H28.17A6.44,6.44,0,0,1,27,119.05Z"/><path class="cls-1" d="M23,113.86l.37.22.15.06a.28.28,0,0,0,.25,0,3.94,3.94,0,0,0,.53-.51H22.66C22.81,113.7,22.94,113.8,23,113.86Z"/><path class="cls-1" d="M21.27,113.59H20.6a4.76,4.76,0,0,0-.39,1.68,5.71,5.71,0,0,0,1.09,3.25H22a5.28,5.28,0,0,1-1.19-3.23A4.51,4.51,0,0,1,21.27,113.59Z"/><path class="cls-1" d="M18.27,108h.79l.77-.81A14.54,14.54,0,0,0,22.74,103h-.61a13.63,13.63,0,0,1-2.74,3.7C19,107.13,18.62,107.53,18.27,108Z"/><path class="cls-1" d="M29.9,106.68c.23.43.43.85.61,1.27h.65a13,13,0,0,0-.74-1.57A19.92,19.92,0,0,0,28,103h-.81A20.33,20.33,0,0,1,29.9,106.68Z"/><path class="cls-1" d="M18.67,117.05A5.25,5.25,0,0,1,17,113.59h-.6a5.81,5.81,0,0,0,1.83,3.89,8.89,8.89,0,0,0,1.32,1h1.25A8.43,8.43,0,0,1,18.67,117.05Z"/><path class="cls-1" d="M28.77,114.75a5.23,5.23,0,0,0-.11-1.16h-.61a4.72,4.72,0,0,1,.12,1.16,6,6,0,0,1-1.52,3.77h.75A6.38,6.38,0,0,0,28.77,114.75Z"/><path class="cls-1" d="M32.08,113.59h-.62a6.18,6.18,0,0,1-3.29,4.93h1.17A6.68,6.68,0,0,0,32.08,113.59Z"/><path class="cls-1" d="M19.06,108h-.79a7.65,7.65,0,0,0-1.87,5.36,2.46,2.46,0,0,0,0,.28H17c0-.09,0-.18,0-.28A7,7,0,0,1,19.06,108Z"/><path class="cls-1" d="M31.49,113.26c0,.11,0,.22,0,.33h.62c0-.11,0-.22,0-.33a14,14,0,0,0-.93-5.31h-.65A13.23,13.23,0,0,1,31.49,113.26Z"/><path class="cls-1" d="M24.93,108.21a.34.34,0,0,0-.08.26,6.28,6.28,0,0,1-.49,4,2.94,2.94,0,0,1-.76,1l-.24-.14a18,18,0,0,1-1.64-1.24.29.29,0,0,0-.42,0,.21.21,0,0,0,0,.06c-.22.44-.46.89-.66,1.38h.67c.12-.26.24-.52.38-.79.38.32.73.58,1,.79h1.68a4.9,4.9,0,0,0,.56-.81,6.69,6.69,0,0,0,.63-3.48,9.65,9.65,0,0,1,2.52,4.29h.61a10.56,10.56,0,0,0-3.3-5.39A.31.31,0,0,0,24.93,108.21Z"/></g></g></svg>