<svg xmlns="http://www.w3.org/2000/svg" viewBox="0 0 163.069 169.466">
  <defs>
    <style>
      .cls-1, .cls-2, .cls-3 {
        fill: #fff;
      }

      .cls-1 {
        font-size: 21px;
        font-family: LemonMilklight, "Lemon/Milk light";
      }

      .cls-3 {
        opacity: 0.4;
      }
    </style>
  </defs>
  <g id="Group_3466" data-name="Group 3466" transform="translate(0.082 0.019)">
    <text id="Mi_Casa_Verde" data-name="Mi Casa Verde" class="cls-1" transform="translate(5.783 124.106)"><tspan x="0" y="0">Mi Casa Verde</tspan></text>
    <path id="Path_4098" data-name="Path 4098" class="cls-2" d="M2.6,92.681s39.427,15.969,88.605-2.968c21.9-8.479,41.264-22.469,48.33-34.905C153.526,29.936,125.545,11,125.545,11s12.86,20.491,3.533,37.873c-8.9,16.393-35.894,34.905-75.18,43.808C28.32,96.214,29.874,95.507,2.6,92.681Z" transform="translate(1.108 4.553)"/>
    <path id="Path_4099" data-name="Path 4099" class="cls-2" d="M81.856.008a3.978,3.978,0,0,1,2.12.848l78.713,67.549c1.554,1.272-3.392,6.924-4.946,5.653L81.432,8.628,5.121,74.058C3.567,75.33-1.238,69.677.175,68.405L30.7,42.262V.149h14.98V29.26L79.03.856A3.97,3.97,0,0,1,81.856.008Z" transform="translate(0 0)"/>
    <g id="Group_3455" data-name="Group 3455" transform="translate(2.295 131.997)">
      <rect id="Rectangle_590" data-name="Rectangle 590" class="cls-2" width="8.903" height="7.914" transform="translate(91.149 20.632)"/>
      <path id="Path_4100" data-name="Path 4100" class="cls-2" d="M9.514,108H1.6v7.914H17.993V108Z" transform="translate(-1.6 -87.368)"/>
      <rect id="Rectangle_591" data-name="Rectangle 591" class="cls-2" width="15.403" height="7.914" transform="translate(132.413 20.632)"/>
      <rect id="Rectangle_592" data-name="Rectangle 592" class="cls-2" width="9.892" height="7.914" transform="translate(48.754 20.632)"/>
      <path id="Path_4101" data-name="Path 4101" class="cls-3" d="M9.514,114.032V93.4H1.6v20.632H9.514Z" transform="translate(-1.6 -93.4)"/>
      <rect id="Rectangle_593" data-name="Rectangle 593" class="cls-2" width="8.196" height="20.915"/>
      <rect id="Rectangle_594" data-name="Rectangle 594" class="cls-2" width="7.914" transform="translate(0 20.632)"/>
      <rect id="Rectangle_595" data-name="Rectangle 595" class="cls-3" width="7.914" transform="translate(0 20.632)"/>
      <rect id="Rectangle_596" data-name="Rectangle 596" class="cls-2" width="7.348" height="0.141" transform="translate(71.365 28.405)"/>
      <path id="Path_4102" data-name="Path 4102" class="cls-2" d="M55.072,119.324A1.6,1.6,0,0,0,56.2,118.9H53.8A2.279,2.279,0,0,0,55.072,119.324Z" transform="translate(19.967 -82.864)"/>
      <path id="Path_4103" data-name="Path 4103" class="cls-2" d="M57.344,99.107a8.489,8.489,0,0,1,8.338,6.359h.707a9.321,9.321,0,0,0-18.088,0h.707A8.735,8.735,0,0,1,57.344,99.107Z" transform="translate(17.695 -91.334)"/>
      <path id="Path_4104" data-name="Path 4104" class="cls-2" d="M49.3,109.9h.848a9.283,9.283,0,0,1-1.131-4.8,6.88,6.88,0,0,1,.141-1.7h-.707a6.881,6.881,0,0,0-.141,1.7A8.642,8.642,0,0,0,49.3,109.9Z" transform="translate(17.687 -89.268)"/>
      <path id="Path_4105" data-name="Path 4105" class="cls-2" d="M57.818,119.677v-.424h.707a1.871,1.871,0,0,0,1.837-1.837V113.6h-.707v1.978H52.307V113.6H51.6v3.816a1.871,1.871,0,0,0,1.837,1.837h.707v.424a1.962,1.962,0,0,0,.707,1.413h2.4A2.511,2.511,0,0,0,57.818,119.677Zm-4.381-1.131a1.115,1.115,0,0,1-1.131-1.131v-1.131h7.348v1.131a1.115,1.115,0,0,1-1.131,1.131Zm3.674,1.131a1.131,1.131,0,1,1-2.261,0v-.424h2.261Z" transform="translate(19.058 -85.054)"/>
      <path id="Path_4106" data-name="Path 4106" class="cls-2" d="M61.031,105.1a10.93,10.93,0,0,1-1.131,4.8h.848a11.458,11.458,0,0,0,1.131-4.8,6.88,6.88,0,0,0-.141-1.7h-.707Z" transform="translate(22.487 -89.268)"/>
      <path id="Path_4107" data-name="Path 4107" class="cls-2" d="M63.273,109.737c-1.131,1.554-2.261,3.109-2.4,5.229H53.522c-.141-2.12-1.272-3.674-2.4-5.229a8.012,8.012,0,0,1-1.131-1.837H49a12.2,12.2,0,0,0,1.413,2.261c1.272,1.7,2.261,3.109,2.261,5.229v.565h.707v-.141h7.348v.141h.707v-.565c0-2.12,1.131-3.533,2.261-5.229.424-.707.989-1.413,1.413-2.261h-.848A7.614,7.614,0,0,1,63.273,109.737Z" transform="translate(17.984 -87.409)"/>
      <path id="Path_4108" data-name="Path 4108" class="cls-2" d="M86.863,118.765A6.554,6.554,0,0,1,83.9,118.2H82.2a9.186,9.186,0,0,0,9.327,0h-1.7A9.238,9.238,0,0,1,86.863,118.765Z" transform="translate(31.701 -83.154)"/>
      <path id="Path_4109" data-name="Path 4109" class="cls-2" d="M87.07,98.989a53.493,53.493,0,0,1,4.381,5.511H92.3a71.6,71.6,0,0,0-5.087-6.359L87.07,98c-.141,0-.283,0-.283.141A55.722,55.722,0,0,0,81.7,104.5h.848C84.1,102.663,85.516,100.826,87.07,98.989Z" transform="translate(31.494 -91.499)"/>
      <path id="Path_4110" data-name="Path 4110" class="cls-2" d="M79.507,113.6H78.8a11.383,11.383,0,0,0,4.8,6.5h1.7A10.62,10.62,0,0,1,79.507,113.6Z" transform="translate(30.296 -85.054)"/>
      <path id="Path_4111" data-name="Path 4111" class="cls-2" d="M79.848,110.19A35.038,35.038,0,0,1,83.8,102.7h-.848A29.458,29.458,0,0,0,79,110.19Z" transform="translate(30.379 -89.558)"/>
      <path id="Path_4112" data-name="Path 4112" class="cls-2" d="M94.2,113.6h-.707a10.62,10.62,0,0,1-5.794,6.5h1.7A11.383,11.383,0,0,0,94.2,113.6Z" transform="translate(33.973 -85.054)"/>
      <path id="Path_4113" data-name="Path 4113" class="cls-2" d="M92.7,110.19H93.4a29.457,29.457,0,0,0-3.957-7.49H88.6A26.119,26.119,0,0,1,92.7,110.19Z" transform="translate(34.345 -89.558)"/>
      <path id="Path_4114" data-name="Path 4114" class="cls-2" d="M87.641,116a.316.316,0,0,0,.283.565,8.26,8.26,0,0,0,2.4-2.968H89.62A8.571,8.571,0,0,1,87.641,116Z" transform="translate(33.891 -85.054)"/>
      <path id="Path_4115" data-name="Path 4115" class="cls-2" d="M80.1,108h-.848a13.566,13.566,0,0,0-.848,4.663,13.937,13.937,0,0,0,.424,3.392h.707a12.147,12.147,0,0,1-.565-3.392A27.99,27.99,0,0,1,80.1,108Z" transform="translate(30.131 -87.368)"/>
      <path id="Path_4116" data-name="Path 4116" class="cls-2" d="M92.389,112.563a9.5,9.5,0,0,1-.565,3.392h.707a12.367,12.367,0,0,0,.424-3.392,13.566,13.566,0,0,0-.848-4.663H91.4A12.043,12.043,0,0,1,92.389,112.563Z" transform="translate(35.502 -87.409)"/>
      <path id="Path_4117" data-name="Path 4117" class="cls-2" d="M90.654,110.683a.3.3,0,0,0-.283-.283c-.141,0-.424.141-.283.424a7.334,7.334,0,0,1-.989,4.1h.848A14.03,14.03,0,0,0,90.654,110.683Z" transform="translate(34.552 -86.376)"/>
      <path id="Path_4118" data-name="Path 4118" class="cls-2" d="M22.285,119.065c-.283-.141-.707-.283-.989-.424H19.6a14.369,14.369,0,0,0,3.957,1.837c.283,0,.424,0,.565-.283v-.424a7.766,7.766,0,0,1-.989-1.272h-.989A1.068,1.068,0,0,0,22.285,119.065Z" transform="translate(5.837 -83.03)"/>
      <path id="Path_4119" data-name="Path 4119" class="cls-2" d="M24.5,99.972a51.237,51.237,0,0,1,4.8,4.8h1.131A58.531,58.531,0,0,0,24.5,98.841a.519.519,0,0,0-.424-.141c-.141,0-.283.141-.283.424a20.772,20.772,0,0,1-1.7,5.653h.848A17.437,17.437,0,0,0,24.5,99.972Z" transform="translate(6.87 -91.21)"/>
      <path id="Path_4120" data-name="Path 4120" class="cls-2" d="M27.527,119.348c.141-.283.424-.424.565-.707H26.962a8.528,8.528,0,0,1-1.131,1.131.43.43,0,0,0,0,.565.519.519,0,0,0,.424.141,8.755,8.755,0,0,0,4.522-1.978h-1.7A15.416,15.416,0,0,1,27.527,119.348Z" transform="translate(8.368 -83.03)"/>
      <path id="Path_4121" data-name="Path 4121" class="cls-2" d="M23.124,113.983c.283.141.424.283.565.283a.493.493,0,0,1,.283.141H24.4l.707-.707H22.7C22.841,113.7,22.983,113.841,23.124,113.983Z" transform="translate(7.118 -85.013)"/>
      <path id="Path_4122" data-name="Path 4122" class="cls-2" d="M21.754,113.6h-.989A6.657,6.657,0,0,0,20.2,116a8.245,8.245,0,0,0,1.554,4.522h.989a8.19,8.19,0,0,1-1.7-4.522A4.764,4.764,0,0,1,21.754,113.6Z" transform="translate(6.085 -85.054)"/>
      <path id="Path_4123" data-name="Path 4123" class="cls-2" d="M18.3,110.024h1.131a8.527,8.527,0,0,1,1.131-1.131,17.429,17.429,0,0,0,4.1-5.794h-.848A20.024,20.024,0,0,1,20,108.329,4.871,4.871,0,0,0,18.3,110.024Z" transform="translate(5.3 -89.392)"/>
      <path id="Path_4124" data-name="Path 4124" class="cls-2" d="M30.974,108.229c.283.565.565,1.272.848,1.837h.989c-.283-.707-.565-1.413-.989-2.261a30.291,30.291,0,0,0-3.392-4.8H27.3A27.389,27.389,0,0,1,30.974,108.229Z" transform="translate(9.018 -89.434)"/>
      <path id="Path_4125" data-name="Path 4125" class="cls-2" d="M19.65,118.446a7.209,7.209,0,0,1-2.4-4.946H16.4a8.736,8.736,0,0,0,2.544,5.511,9.072,9.072,0,0,0,1.837,1.413h1.7A9.335,9.335,0,0,1,19.65,118.446Z" transform="translate(4.515 -85.095)"/>
      <path id="Path_4126" data-name="Path 4126" class="cls-2" d="M29.709,115.3a6.88,6.88,0,0,0-.141-1.7h-.989a6.88,6.88,0,0,1,.141,1.7,8.712,8.712,0,0,1-2.12,5.37h1.131A9.921,9.921,0,0,0,29.709,115.3Z" transform="translate(8.729 -85.054)"/>
      <path id="Path_4127" data-name="Path 4127" class="cls-2" d="M33.711,113.6h-.848a8.657,8.657,0,0,1-4.663,6.924h1.7A9.317,9.317,0,0,0,33.711,113.6Z" transform="translate(9.39 -85.054)"/>
      <path id="Path_4128" data-name="Path 4128" class="cls-2" d="M20.216,108H19.085a10.772,10.772,0,0,0-2.685,7.631v.424h.848v-.424C17.248,111.674,18.52,109.7,20.216,108Z" transform="translate(4.515 -87.368)"/>
      <path id="Path_4129" data-name="Path 4129" class="cls-2" d="M31.913,115.49v.424h.848v-.424A21.943,21.943,0,0,0,31.489,108H30.5A18.618,18.618,0,0,1,31.913,115.49Z" transform="translate(10.34 -87.368)"/>
      <path id="Path_4130" data-name="Path 4130" class="cls-2" d="M26.677,108.227a.519.519,0,0,0-.141.424,9.125,9.125,0,0,1-.707,5.653,3.137,3.137,0,0,1-1.131,1.413c-.141,0-.141-.141-.283-.141-.424-.283-1.131-.848-2.261-1.7a.43.43,0,0,0-.565,0v.141c-.283.565-.707,1.272-.989,1.978h.989a4.231,4.231,0,0,1,.565-1.131c.565.424.989.848,1.413,1.131h2.4a7.838,7.838,0,0,0,.848-1.131,9.424,9.424,0,0,0,.848-4.946A13.165,13.165,0,0,1,31.2,116h.848c-.424-2.261-1.837-4.8-4.663-7.631C27.1,108.086,26.959,108.086,26.677,108.227Z" transform="translate(6.25 -87.312)"/>
    </g>
  </g>
</svg>
