<svg xmlns="http://www.w3.org/2000/svg" viewBox="0 0 97.109 91.521">
  <defs>
    <style>
      .cls-1 {
        fill: none;
        stroke: #15a556;
        stroke-miterlimit: 10;
        stroke-width: 3px;
      }
    </style>
  </defs>
  <path id="Path_1911" data-name="Path 1911" class="cls-1" d="M44.975,25.437l8.655,2.485a1.412,1.412,0,0,1,.943,1.8A1.467,1.467,0,0,1,53.2,30.75H47.546a4.605,4.605,0,0,1-1.8-.428,2.074,2.074,0,0,0-2.4.343l-3,3.085a1.972,1.972,0,0,0,0,2.914l.257.257a11.475,11.475,0,0,0,5.484,1.971v3.085a2.707,2.707,0,0,0,2.742,2.742h2.828A2.761,2.761,0,0,0,54.4,41.976v-3a9.713,9.713,0,0,0,8.569-10.712v-.171a10.1,10.1,0,0,0-7.455-8.312l-8.655-2.4a1.467,1.467,0,0,1-1.028-1.371,1.5,1.5,0,0,1,1.457-1.457h5.656a6.675,6.675,0,0,1,1.8.343,2.074,2.074,0,0,0,2.4-.343l3-3a1.972,1.972,0,0,0,0-2.914l-.257-.257A11.475,11.475,0,0,0,54.4,6.413V3.242A2.707,2.707,0,0,0,51.659.5H48.917a2.707,2.707,0,0,0-2.742,2.742V6.327a9.627,9.627,0,0,0-8.569,10.8v.086A10.125,10.125,0,0,0,44.975,25.437ZM92.792,57.229a5.137,5.137,0,0,0-6.941,0L70.769,70a10.014,10.014,0,0,1-6.513,2.4H44.889a2.793,2.793,0,0,1,0-5.57H57.658a5.532,5.532,0,0,0,.257-11.054H31.778A18.391,18.391,0,0,0,19.7,60.314l-7.541,6.6H3.071A2.729,2.729,0,0,0,.5,69.655V86.279a2.673,2.673,0,0,0,2.571,2.742H61.342a10.014,10.014,0,0,0,6.513-2.4L92.621,65.713a5.808,5.808,0,0,0,.6-8.141c-.171-.086-.257-.257-.428-.343Z" transform="translate(1 1)"/>
</svg>
