<svg xmlns="http://www.w3.org/2000/svg" viewBox="0 0 144.462 45.94">
  <defs>
    <style>
      .cls-1 {
        fill: #2fa766;
      }
    </style>
  </defs>
  <g id="qIe9tD.tif_1_" transform="translate(0)">
    <g id="Group_2172" data-name="Group 2172" transform="translate(0 0)">
      <path id="Path_2152" data-name="Path 2152" class="cls-1" d="M0,430.559c.1-.684.2-1.416.342-2.1a26.267,26.267,0,0,1,2.441-7.86,12.026,12.026,0,0,1,9.081-6.444,26.029,26.029,0,0,1,14.4,1.855c.342.147.439.293.342.684a89.352,89.352,0,0,0-2.685,10.643,20.294,20.294,0,0,0,.049,8.739A15.31,15.31,0,0,0,26.51,441.4a7.15,7.15,0,0,1,.439.635c-.2,0-.342.049-.488.049H18.943a.659.659,0,0,1-.732-.44c-.439-.879-.83-1.758-1.416-2.783a1.205,1.205,0,0,1-.2.439,9.38,9.38,0,0,1-5.175,2.929,5.106,5.106,0,0,0-.83.2H9.471l-.586-.146A9.7,9.7,0,0,1,5.029,441.2a9.329,9.329,0,0,1-4.638-6.688c-.146-.684-.244-1.416-.342-2.1C0,431.779,0,431.193,0,430.559Zm14.89-11.376c0,.049,0,.049-.049.1a11.947,11.947,0,0,0-1.318.1,5.168,5.168,0,0,0-3.613,2.636,15.966,15.966,0,0,0-2,5.712,13.022,13.022,0,0,0-.2,5.321,3.358,3.358,0,0,0,2.392,2.832,3.58,3.58,0,0,0,3.955-.781,8.18,8.18,0,0,0,1.318-2.05,20.088,20.088,0,0,0,1.318-4.736c.537-2.636,1.074-5.273,1.66-7.909.1-.39-.049-.586-.391-.635Q16.5,419.476,14.89,419.183Z" transform="translate(0 -396.481)"/>
      <path id="Path_2153" data-name="Path 2153" class="cls-1" d="M153.269,442.525c-.537-.1-1.025-.146-1.562-.244a8.963,8.963,0,0,1-7.909-7.421,22.634,22.634,0,0,1,.732-10.057,16.851,16.851,0,0,1,3.076-6.3,11.122,11.122,0,0,1,7.372-4.15,23.535,23.535,0,0,1,5.859-.1,8.766,8.766,0,0,1,7.909,7.128,20.326,20.326,0,0,1-.342,9.227,19.76,19.76,0,0,1-2.832,6.689,11.228,11.228,0,0,1-7.665,4.833c-.781.146-1.513.146-2.295.244a1.73,1.73,0,0,0-.488.1C154.538,442.525,153.9,442.525,153.269,442.525Zm8.446-17.722c-.1-.537-.146-1.513-.391-2.49a3.527,3.527,0,0,0-3.808-2.832,5.039,5.039,0,0,0-3.564,1.855,12.006,12.006,0,0,0-2.343,4.98,16.5,16.5,0,0,0-.537,6.737,3.561,3.561,0,0,0,2.49,3.076,5.772,5.772,0,0,0,2.587.1,5.008,5.008,0,0,0,3.613-2.783A19.38,19.38,0,0,0,161.715,424.8Z" transform="translate(-73.446 -396.633)"/>
      <path id="Path_2154" data-name="Path 2154" class="cls-1" d="M257.644,388.748c-.1.537-.2,1.025-.293,1.562a17.417,17.417,0,0,1-3.613,7.226,19.951,19.951,0,0,1-8.593,6.4,14.9,14.9,0,0,1-4.589,1.025,5.762,5.762,0,0,1-4.687-2.2,15.5,15.5,0,0,1-2.978-6.347,22.411,22.411,0,0,1-.488-2.49c-.049-.342-.2-.439-.537-.342a10.176,10.176,0,0,1-5.273-.146,6.934,6.934,0,0,1-4.882-5.761,8.337,8.337,0,0,1,1.318-6.591,5.82,5.82,0,0,1,4.345-2.636c.146,0,.244-.1.391-.146h1.123a.694.694,0,0,0,.293.1,6.2,6.2,0,0,1,4.1,2.343,13.23,13.23,0,0,1,2.636,5.224c.1.342.2.732.342,1.172.2-.2.391-.293.537-.439a29.84,29.84,0,0,1,6.737-4.833,14.252,14.252,0,0,1,8.593-1.806,5.712,5.712,0,0,1,3.271,1.562,8.889,8.889,0,0,1,2.1,3.955c.146.586.244,1.123.342,1.709A3.675,3.675,0,0,0,257.644,388.748Zm-8.4-4.394a3.7,3.7,0,0,0-.732.049,13.1,13.1,0,0,0-1.318.342c-3.71,1.269-6.835,3.515-9.96,5.81a.609.609,0,0,0-.146.586c.244,1.172.488,2.343.781,3.466a9.8,9.8,0,0,0,1.611,3.564,2.073,2.073,0,0,0,1.9.83,8.43,8.43,0,0,0,1.513-.342c4.931-1.953,8.251-5.224,9.13-10.643C252.274,385.965,251.4,384.256,249.247,384.354Zm-24.069,1.66a4.975,4.975,0,0,0,2.783,4.052,3.619,3.619,0,0,0,3.173.049.607.607,0,0,0,.439-.781,7.931,7.931,0,0,1-.146-.976,12.829,12.829,0,0,0-1.416-4.248,2.338,2.338,0,0,0-1.9-1.367A3,3,0,0,0,225.178,386.014Z" transform="translate(-113.378 -378.3)"/>
      <path id="Path_2155" data-name="Path 2155" class="cls-1" d="M64.346,442.547c-.537-.1-1.074-.146-1.611-.244a8.984,8.984,0,0,1-8.055-7.86,23.027,23.027,0,0,1,1.465-11.473,14.261,14.261,0,0,1,4.1-6.152,10.746,10.746,0,0,1,5.663-2.441,29.244,29.244,0,0,1,4.638-.2,8.841,8.841,0,0,1,6.249,2.88.5.5,0,0,1,.1.439c-1.025,1.806-2.05,3.564-3.125,5.419-.244-.244-.439-.488-.683-.732a6.11,6.11,0,0,0-6.64-1.465,6,6,0,0,0-3.125,3.515A17.994,17.994,0,0,0,62,430a16.726,16.726,0,0,0,.1,3.125c.391,2.343,2.1,3.222,4.247,3.076a13.067,13.067,0,0,0,6.737-2.88c1.269-.928,2.49-2.051,3.71-3.027a2.914,2.914,0,0,1,.342-.293c-.146.879-.244,1.611-.391,2.343l-.879,4.98a1.331,1.331,0,0,1-.293.586,15.257,15.257,0,0,1-8.495,4.3c-.488.1-.976.146-1.465.244A5.775,5.775,0,0,1,64.346,442.547Z" transform="translate(-27.876 -396.655)"/>
      <path id="Path_2156" data-name="Path 2156" class="cls-1" d="M201.92,442.457c-.683-.1-1.367-.2-2.05-.342a23.539,23.539,0,0,1-7.372-2.929c-.049,0-.049-.049-.1-.146a20.88,20.88,0,0,0,2.929-5.907,1.463,1.463,0,0,1,.391.2,21.673,21.673,0,0,0,6.2,2.588,5.089,5.089,0,0,0,3.076-.049,2.331,2.331,0,0,0,.928-3.857,14.383,14.383,0,0,0-2.392-1.758c-1.465-1.025-3.076-1.9-4.443-3.027-4.2-3.369-2.832-10.789,2.49-12.449a16.315,16.315,0,0,1,13.23,1.465q.073,0,.146.146c-.928,1.9-1.9,3.808-2.88,5.81a4.724,4.724,0,0,1-.439-.342,13.563,13.563,0,0,0-4.736-2.392,3.464,3.464,0,0,0-1.416-.049,2.116,2.116,0,0,0-1.269,3.515,14.136,14.136,0,0,0,2.295,1.855A29.314,29.314,0,0,1,211,428.055a7.37,7.37,0,0,1,2.392,4.1,7.969,7.969,0,0,1-3.418,8.2,10.874,10.874,0,0,1-5.566,1.9,2.575,2.575,0,0,0-.586.146C203.141,442.457,202.506,442.457,201.92,442.457Z" transform="translate(-98.468 -396.566)"/>
      <path id="Path_2157" data-name="Path 2157" class="cls-1" d="M113.717,414.657v1.611a9.706,9.706,0,0,1,8.641-1.562,5.827,5.827,0,0,1,2.832,1.66,17.988,17.988,0,0,0-3.222,5.175,16.09,16.09,0,0,0-1.9-.83,5.475,5.475,0,0,0-5.419,1.562,10.245,10.245,0,0,0-2.832,5.761c-.781,4.54-1.513,9.13-2.246,13.719-.049.391-.2.586-.683.586-2.1-.049-4.247,0-6.347,0H102c.2-1.318.439-2.636.635-3.906.439-2.588.83-5.175,1.269-7.763.439-2.783.879-5.566,1.367-8.348l1.172-7.177c.049-.293.1-.537.488-.537h6.444A1.289,1.289,0,0,1,113.717,414.657Z" transform="translate(-52.202 -396.739)"/>
      <path id="Path_2158" data-name="Path 2158" class="cls-1" d="M248.6,463.853a1.977,1.977,0,0,1,3.954.049,1.952,1.952,0,0,1-2.051,1.953A1.873,1.873,0,0,1,248.6,463.853Zm1.953,1.758a1.74,1.74,0,0,0,1.758-1.709,1.782,1.782,0,0,0-1.758-1.758,1.694,1.694,0,0,0-1.709,1.806A1.629,1.629,0,0,0,250.553,465.61Z" transform="translate(-127.231 -421.086)"/>
      <path id="Path_2159" data-name="Path 2159" class="cls-1" d="M252.467,466.095a4.642,4.642,0,0,0-.488-.83c-.1-.146-.293-.2-.439-.293a.877.877,0,0,0-.2.439,2.578,2.578,0,0,0-.049.635h-.2v-1.758c0-.293.1-.391.391-.391h.439c.293,0,.684-.049.781.342s-.049.684-.537.781c.2.391.342.684.488,1.025A.294.294,0,0,0,252.467,466.095Zm-.635-1.221c.293-.2.488-.342.683-.488a4.038,4.038,0,0,0-.635-.342c-.2-.049-.537-.049-.488.293C251.393,464.533,251.637,464.679,251.832,464.874Z" transform="translate(-128.51 -422.107)"/>
    </g>
  </g>
</svg>
