<svg xmlns="http://www.w3.org/2000/svg" viewBox="0 0 81.343 89.887">
  <defs>
    <style>
      .cls-1, .cls-2 {
        fill: none;
        stroke: #15a556;
        stroke-width: 3px;
      }

      .cls-2 {
        stroke-miterlimit: 10;
      }
    </style>
  </defs>
  <g id="Capa_2_2_" transform="translate(1.003 1.003)">
    <g id="Capa_1-2_1_" transform="translate(0.497 0.497)">
      <path id="Path_1915" data-name="Path 1915" class="cls-1" d="M39.706.5A37.725,37.725,0,0,1,59.347,5.822,39.315,39.315,0,0,1,73.59,20.065a37.843,37.843,0,0,1,5.248,19.641v7.347a4.823,4.823,0,0,1-.75,2.624,4.888,4.888,0,0,1-2.024,1.874L74.04,52.6a16.8,16.8,0,0,1-5.248,11.695c-3.373,3.224-5.847,4.8-10.42,4.8H54.7a3.679,3.679,0,0,1-3.673-3.673h0V38.432A3.679,3.679,0,0,1,54.7,34.758h3.673c2.324,0,3.074.45,5.173,1.349a16.917,16.917,0,0,1,5.547,3.9v-.3a28.815,28.815,0,0,0-3.973-14.693A30.587,30.587,0,0,0,54.4,14.293,28.1,28.1,0,0,0,39.706,10.32a28.815,28.815,0,0,0-14.693,3.973,30.587,30.587,0,0,0-10.72,10.72A28.1,28.1,0,0,0,10.32,39.706v.3c1.649-1.649,2.024-2.924,4.048-3.823a16.847,16.847,0,0,1,6.672-1.349h3.673a3.664,3.664,0,0,1,3.673,3.6V65.494a3.616,3.616,0,0,1-3.673,3.6H21.04c-4.573,0-7.047-1.574-10.345-4.8A16.711,16.711,0,0,1,5.372,52.6l-2.1-1.124A5.387,5.387,0,0,1,1.249,49.6,4.487,4.487,0,0,1,.5,46.978V39.631A37.654,37.654,0,0,1,5.747,19.99,39.315,39.315,0,0,1,19.99,5.747,38.84,38.84,0,0,1,39.706.5Z" transform="translate(-0.497 -0.497)"/>
      <path id="Path_1916" data-name="Path 1916" class="cls-2" d="M91.515,69.5c4.8,11.77,4.123,32.16-22.115,30.061" transform="translate(-17.747 -17.772)"/>
      <ellipse id="Ellipse_8" data-name="Ellipse 8" class="cls-2" cx="9.671" cy="5.922" rx="9.671" ry="5.922" transform="translate(32.387 75.042)"/>
    </g>
  </g>
</svg>
