<svg xmlns="http://www.w3.org/2000/svg" viewBox="0 0 160.977 44.604">
  <defs>
    <style>
      .cls-1 {
        fill: #15a556;
      }

      .cls-2 {
        fill: none;
        stroke: #15a556;
        stroke-linecap: round;
        stroke-width: 4px;
      }
    </style>
  </defs>
  <g id="Group_3376" data-name="Group 3376" transform="translate(-603.598 -1173.806)">
    <path id="Path_4193" data-name="Path 4193" class="cls-1" d="M348.6,42V13.563h8.379a10.807,10.807,0,0,1,6.865,1.953,6.969,6.969,0,0,1,2.471,5.82,7.133,7.133,0,0,1-.9,3.6,5.54,5.54,0,0,1-2.7,2.354,5.046,5.046,0,0,1,3.32,2.285,7.746,7.746,0,0,1,1.074,4.121,7.92,7.92,0,0,1-2.334,6.191Q362.445,42,358.09,42Zm5.566-12.539v8.105h3.926a3.337,3.337,0,0,0,2.627-.977,4.259,4.259,0,0,0,.869-2.91,5.542,5.542,0,0,0-.742-3.125,2.672,2.672,0,0,0-2.383-1.094Zm0-3.887h3.066a3.564,3.564,0,0,0,2.607-.986,3.784,3.784,0,0,0,.908-2.725,3.963,3.963,0,0,0-.937-2.92,3.874,3.874,0,0,0-2.832-.928h-2.812ZM378.656,42.41a8.07,8.07,0,0,1-6.328-2.617,9.525,9.525,0,0,1-2.344-6.6V30.223a10.908,10.908,0,0,1,2.178-7.012,7.276,7.276,0,0,1,6.025-2.734,7,7,0,0,1,5.742,2.48,10.357,10.357,0,0,1,2.031,6.758v3.4H375.512v.078a5.841,5.841,0,0,0,.947,3.438,3.264,3.264,0,0,0,2.861,1.348,7.637,7.637,0,0,0,2.539-.352,13.357,13.357,0,0,0,2.324-1.172l1.406,3.535a8.378,8.378,0,0,1-2.92,1.738A11.366,11.366,0,0,1,378.656,42.41Zm-.469-17.48a2.061,2.061,0,0,0-1.953,1.211,7.827,7.827,0,0,0-.7,3.262h4.98v-.781a5.589,5.589,0,0,0-.547-2.725A1.886,1.886,0,0,0,378.188,24.93Zm15.645-4.062.234,2.91a7.042,7.042,0,0,1,2.158-2.432,5.164,5.164,0,0,1,6.973,1.162q1.514,2.031,1.514,6.387V42h-5.566V28.895a5.656,5.656,0,0,0-.615-3.076,2.156,2.156,0,0,0-1.9-.889,2.53,2.53,0,0,0-1.367.391,3.33,3.33,0,0,0-1.055,1.074V42h-5.547V20.867ZM416.41,42.41a8.07,8.07,0,0,1-6.328-2.617,9.525,9.525,0,0,1-2.344-6.6V30.223a10.908,10.908,0,0,1,2.178-7.012,7.276,7.276,0,0,1,6.025-2.734,7,7,0,0,1,5.742,2.48,10.357,10.357,0,0,1,2.031,6.758v3.4H413.266v.078a5.841,5.841,0,0,0,.947,3.438,3.264,3.264,0,0,0,2.861,1.348,7.637,7.637,0,0,0,2.539-.352,13.357,13.357,0,0,0,2.324-1.172l1.406,3.535a8.378,8.378,0,0,1-2.92,1.738A11.366,11.366,0,0,1,416.41,42.41Zm-.469-17.48a2.061,2.061,0,0,0-1.953,1.211,7.827,7.827,0,0,0-.7,3.262h4.98v-.781a5.589,5.589,0,0,0-.547-2.725A1.886,1.886,0,0,0,415.941,24.93ZM427.66,42V24.891h-2.6V20.867h2.6V19.5a8.36,8.36,0,0,1,2.188-6.211,8.39,8.39,0,0,1,6.172-2.168,12.609,12.609,0,0,1,2.705.293,27.858,27.858,0,0,1,3,.859l-.781,4.531q-1.27-.43-2.256-.664a10.1,10.1,0,0,0-2.314-.234,2.968,2.968,0,0,0-2.363.918,3.957,3.957,0,0,0-.8,2.676v1.367h3.379v4.023h-3.379V42Zm16.6,0H438.7V20.867h5.566Zm11.582-4.023a1.937,1.937,0,0,0,1.709-.84,4.266,4.266,0,0,0,.576-2.422h5.039l.059.117a7.148,7.148,0,0,1-7.383,7.578,7.685,7.685,0,0,1-6.3-2.676,10.54,10.54,0,0,1-2.2-6.914V30.105a10.66,10.66,0,0,1,2.188-6.924,7.6,7.6,0,0,1,6.27-2.705,7.039,7.039,0,0,1,5.459,2.207,8.277,8.277,0,0,1,1.963,5.957l-.039.1h-5.059a5.717,5.717,0,0,0-.576-2.764A1.875,1.875,0,0,0,455.8,24.93a2.285,2.285,0,0,0-2.285,1.406,9.427,9.427,0,0,0-.625,3.77V32.82a9.316,9.316,0,0,0,.625,3.789A2.322,2.322,0,0,0,455.844,37.977ZM471.7,42h-5.547V20.867H471.7Zm0-26.23h-5.547V11.531H471.7Zm3.2,14.375a10.506,10.506,0,0,1,2.256-6.963,8.743,8.743,0,0,1,12.646,0,10.477,10.477,0,0,1,2.266,6.963v2.617a10.421,10.421,0,0,1-2.266,6.973,8.809,8.809,0,0,1-12.646,0,10.45,10.45,0,0,1-2.256-6.973Zm5.527,2.617a8.8,8.8,0,0,0,.684,3.828,2.435,2.435,0,0,0,2.383,1.387,2.406,2.406,0,0,0,2.334-1.4,8.7,8.7,0,0,0,.693-3.818V30.145a8.723,8.723,0,0,0-.693-3.8,2.66,2.66,0,0,0-4.707.01,8.735,8.735,0,0,0-.693,3.789Zm23.77,3.711a2.052,2.052,0,0,0-.7-1.553,11.836,11.836,0,0,0-2.7-1.611,14.212,14.212,0,0,1-4.775-2.7,5.13,5.13,0,0,1-1.592-3.906,5.7,5.7,0,0,1,2.041-4.4,7.8,7.8,0,0,1,5.4-1.826,8.081,8.081,0,0,1,5.605,1.875,5.914,5.914,0,0,1,2.012,4.785l-.059.117h-5.352a3.617,3.617,0,0,0-.547-2.109,1.911,1.911,0,0,0-1.68-.781,2.108,2.108,0,0,0-1.523.605,2.086,2.086,0,0,0,0,2.979,12.589,12.589,0,0,0,2.715,1.572,13.162,13.162,0,0,1,4.922,2.686,5.774,5.774,0,0,1-.547,8.486,8.765,8.765,0,0,1-5.645,1.719A7.812,7.812,0,0,1,496,40.281a6.286,6.286,0,0,1-2.031-4.8l.039-.117h5.078a3.447,3.447,0,0,0,.781,2.422,2.771,2.771,0,0,0,2.051.742,2.4,2.4,0,0,0,1.7-.547A1.957,1.957,0,0,0,504.2,36.473Z" transform="translate(255 1176)"/>
    <g id="Group_3258" data-name="Group 3258" transform="translate(706.974 1175.313)">
      <g id="Group_1938" data-name="Group 1938" transform="translate(17.273 0.494)">
        <path id="Path_1922" data-name="Path 1922" class="cls-2" d="M41.844,12.779C37.619,16.159,30.3,14.018,30.3,14.018s-.338-8.056,3.944-11.267c5.352-4,12.788-1.465,12.788-1.465A14.228,14.228,0,0,1,41.844,12.779Z" transform="translate(-30.289 -0.494)"/>
        <path id="Path_1923" data-name="Path 1923" class="cls-2" d="M30.3,18.562A22.333,22.333,0,0,1,39.99,10.9" transform="translate(-30.294 -5.037)"/>
      </g>
      <g id="Group_1939" data-name="Group 1939" transform="translate(0.479 0.494)">
        <path id="Path_1924" data-name="Path 1924" class="cls-2" d="M5.674,12.779c4.225,3.38,11.549,1.239,11.549,1.239s.338-8.056-3.944-11.267C7.927-1.249.491,1.286.491,1.286A14.438,14.438,0,0,0,5.674,12.779Z" transform="translate(-0.479 -0.494)"/>
        <path id="Path_1925" data-name="Path 1925" class="cls-2" d="M22.79,18.562A22.333,22.333,0,0,0,13.1,10.9" transform="translate(-5.99 -5.037)"/>
      </g>
    </g>
  </g>
</svg>
