<svg xmlns="http://www.w3.org/2000/svg" viewBox="0 0 144.462 24.777">
  <defs>
    <style>
      .cls-1 {
        fill: #2fa766;
      }
    </style>
  </defs>
  <g id="_x37_wGip5.tif_1_" transform="translate(0)">
    <g id="Group_2185" data-name="Group 2185" transform="translate(0 0)">
      <path id="Path_2688" data-name="Path 2688" class="cls-1" d="M16.184,14.076a7.008,7.008,0,0,1,2.46,6.81c-.492,2.745-3.03,5.256-5.748,5.334-4.272.129-8.519.026-12.9.026V2.734H2.434c2.9,0,5.774-.052,8.674,0,4.247.078,7.095,3,6.681,7.121C17.66,11.227,16.805,12.522,16.184,14.076ZM5.438,16.691v4.739c1.735,0,3.366.129,4.972-.026a2.252,2.252,0,0,0,1.994-2.46,2.469,2.469,0,0,0-2.279-2.253C8.6,16.639,7.043,16.691,5.438,16.691Zm-.026-4.428c1.528,0,2.952.078,4.35-.026A2.043,2.043,0,0,0,11.7,10.062c-.026-1.088-.414-2.046-1.605-2.149-1.528-.129-3.081-.026-4.687-.026C5.412,9.363,5.412,10.709,5.412,12.263Z" transform="translate(0 -2.009)"/>
      <path id="Path_2689" data-name="Path 2689" class="cls-1" d="M330.4,26.482V3.1h5.645v8.131h7.147v-8.1h5.7V26.482h-5.619V17.29h-7.095v9.218C334.181,26.482,332.368,26.482,330.4,26.482Z" transform="translate(-244.847 -2.297)"/>
      <path id="Path_2690" data-name="Path 2690" class="cls-1" d="M99.916,13.11c-.311,3.6-1.269,6.81-3.858,9.348a10.294,10.294,0,0,1-15.407-.906C76.4,16.373,77.129,7.62,82.127,3.529A10.454,10.454,0,0,1,98.492,7.672,38.116,38.116,0,0,1,99.916,13.11Zm-5.438-.052a19.988,19.988,0,0,0-1.424-3.78c-2.175-3.5-6.137-3.547-8.467-.233a7.878,7.878,0,0,0,1.036,9.84,4.566,4.566,0,0,0,6.5-.181A9.8,9.8,0,0,0,94.478,13.058Z" transform="translate(-57.709 -0.836)"/>
      <path id="Path_2691" data-name="Path 2691" class="cls-1" d="M184.13,3.132c-1.139,1.321-2.1,2.486-3.159,3.7a16.127,16.127,0,0,0-2.02-.984,20.066,20.066,0,0,0-3.5-.777,1.857,1.857,0,0,0-2.149,1.631,1.807,1.807,0,0,0,1.321,2.227,26.455,26.455,0,0,0,3.988,1.01c3.729.673,5.671,2.382,6.37,5.645.57,2.8-.88,5.748-3.729,7.509A11.4,11.4,0,0,1,166.6,20.274l3.392-3.547a17.916,17.916,0,0,0,3.211,2.046,11.6,11.6,0,0,0,3.91.492,1.762,1.762,0,0,0,1.864-1.787,2.84,2.84,0,0,0-1.424-1.89,15.833,15.833,0,0,0-3.962-1.139c-4.117-.751-6.344-3.107-6.37-6.862A7.621,7.621,0,0,1,173.85.154C177.734-.519,180.893,1.087,184.13,3.132Z" transform="translate(-123.461 0.001)"/>
      <path id="Path_2692" data-name="Path 2692" class="cls-1" d="M260.11,16.714c1.528,1.036,2.926,1.994,4.35,2.952-2.33,5.179-9.425,6.991-14.267,3.7-6.784-4.635-7.043-16.08-.44-21a9.754,9.754,0,0,1,13.309,1.295c.518.57.984,1.217,1.554,1.942-1.476,1.01-2.926,1.994-4.4,3a10.183,10.183,0,0,1-1.062-1.036c-2.072-2.641-5.826-1.813-7.457.725a9.114,9.114,0,0,0,.155,8.985c1.5,2.2,5.127,3.133,7.224.6C259.385,17.491,259.748,17.128,260.11,16.714Z" transform="translate(-181.522 -0.245)"/>
      <path id="Path_2693" data-name="Path 2693" class="cls-1" d="M489.13,14.566A12.015,12.015,0,1,1,477.192,2.5,12.059,12.059,0,0,1,489.13,14.566Zm-1.191.026a10.8,10.8,0,1,0-10.953,10.72A10.876,10.876,0,0,0,487.938,14.592Z" transform="translate(-344.668 -1.852)"/>
      <path id="Path_2694" data-name="Path 2694" class="cls-1" d="M481.876,23.191h8.571V19.359c2.356.647,4.48,3.988,4.635,7.095.155,3.185-1.89,6.784-4.583,7.9V30.286c-.544-.026-.984-.078-1.4-.078h-7.224v4.35a8.826,8.826,0,0,1-4.48-7.613c-.052-3.314,1.45-5.878,4.454-7.846C481.876,20.55,481.876,21.793,481.876,23.191Zm.1,5.826h8.441V24.512h-8.441Zm9.684-7.561V32.073C494.642,29.483,494.667,24.279,491.664,21.456Zm-10.824.026c-3.34,2.667-2.745,8.856,0,10.461Z" transform="translate(-353.779 -14.154)"/>
    </g>
  </g>
</svg>
