<svg xmlns="http://www.w3.org/2000/svg" viewBox="0 0 143.143 50.262">
  <defs>
    <style>
      .cls-1 {
        fill: #2fa766;
      }
    </style>
  </defs>
  <g id="_x31_jfbzw.tif_1_" transform="translate(0)">
    <g id="Group_2179" data-name="Group 2179" transform="translate(0 0)">
      <path id="Path_2252" data-name="Path 2252" class="cls-1" d="M652.2,301.67c-2.639,2.75-5.279,5.554-7.919,8.3a1.622,1.622,0,0,0-.6,1.375c.165,1.485.275,3.025.44,4.509a4.172,4.172,0,0,0,.88,2.09c.715.88,1.595.88,3.025.165.275-.165.55-.44.825-.165s.11.6.055.88a4.567,4.567,0,0,1-.33,1.155c-.385,1.155-.99,2.2-2.42,2.365a3.511,3.511,0,0,1-3.794-1.65,13.485,13.485,0,0,1-1.43-4.509c-.11-.44,0-1.1-.55-1.21-.495-.11-.715.44-.99.77-1.595,1.815-3.135,3.684-4.729,5.554a4.843,4.843,0,0,1-4.069,1.21c-.99-.33-.66-.935-.22-1.485,1.485-1.76,3.024-3.464,4.509-5.224,1.43-1.7,2.914-3.409,4.4-5.059a1.674,1.674,0,0,0,.44-1.485c-.22-1.265-.385-2.585-.6-3.9-.22-1.21-.715-1.375-1.54-.495-1.595,1.7-3.135,3.465-4.674,5.279-2.42,2.8-4.784,5.774-7.314,8.524-2.31,2.475-5.169,4.069-8.744,2.97-3.3-1.045-4.234-2.2-3.739-5.939A20.721,20.721,0,0,1,623.822,299.8a4.7,4.7,0,0,1,2.969-.6,2.163,2.163,0,0,1,2.145,2.75,9.16,9.16,0,0,1-.77,2.365,30.564,30.564,0,0,1-10.008,11.933c-.33.22-.825.33-.715.88a1.107,1.107,0,0,0,1.045.825,5.189,5.189,0,0,0,4.179-.99,33.1,33.1,0,0,0,5.719-5.719c3.08-3.739,6.1-7.424,9.184-11.163.715-.825,1.43-1.925,2.749-1.54a2.928,2.928,0,0,1,1.98,2.75c.165,1.155.385,2.365.6,3.52.055.385.055.88.44,1.045.44.165.66-.33.935-.6l3.959-4.289a10.394,10.394,0,0,1,1.1-1.1c1.265-1.045,1.815-.99,2.859.275Zm-27.935,1.65a14.293,14.293,0,0,0-6.214,8.964C620.962,309.918,623.987,307.609,624.262,303.319Z" transform="translate(-509.055 -274.394)"/>
      <path id="Path_2253" data-name="Path 2253" class="cls-1" d="M424,307.616c2.475-8.8,7.534-16,13.858-22.326a17.99,17.99,0,0,1,12.153-5.389,9.06,9.06,0,0,1,1.76.22c2.75.66,4.069,2.695,3.409,5.444-.6,2.695-2.419,4.619-4.454,6.269a1.446,1.446,0,0,1-1.98,0,2.087,2.087,0,0,1-.825-2.31,6.289,6.289,0,0,1,1.7-2.255,12.006,12.006,0,0,0,1.21-1.155c.55-.6,1.265-1.21.715-2.2a2.138,2.138,0,0,0-2.31-1.1,13.274,13.274,0,0,0-5,1.76,28.729,28.729,0,0,0-8.8,8.469,54.58,54.58,0,0,0-7.369,14.628c-.495,1.485-1.1,3.135.275,4.509s3.189,1.1,4.839.6a21.185,21.185,0,0,0,6.159-3.409c.55-.385,1.1-.825,1.65-1.21.275-.165.55-.385.88-.165s.165.6.11.88a8.112,8.112,0,0,1-2.585,3.794c-2.255,1.87-5,2.75-7.7,3.629H427.9a5.874,5.874,0,0,1-3.794-4.069C424,310.805,424,309.21,424,307.616Z" transform="translate(-424 -266.042)"/>
      <path id="Path_2254" data-name="Path 2254" class="cls-1" d="M551.62,254.755a18.756,18.756,0,0,0,3.574,6.269,20.206,20.206,0,0,1,2.86,4.509,6.021,6.021,0,0,1-1.65,7.369A22.266,22.266,0,0,0,553,277.356c-.165.275-.22.715-.66.55-.33-.11-.275-.55-.275-.825a6.585,6.585,0,0,1,1.98-4.619,4.8,4.8,0,0,0,1.21-5.829,20.85,20.85,0,0,0-3.079-5.774c-.275-.33-.495-.715-.88-.11-1.485,2.145-2.969,4.179-3.464,6.819a6.619,6.619,0,0,0,1.1,5.444,8.214,8.214,0,0,1,1.815,4.454.624.624,0,0,1-.385.715,16.286,16.286,0,0,0-2.695-4.234,7.555,7.555,0,0,0-.88-.99c-3.19-2.2-3.025-6.819-.99-9.734a9.01,9.01,0,0,1,1.595-1.925,10.469,10.469,0,0,0,3.739-6.6A1.892,1.892,0,0,0,551.62,254.755Z" transform="translate(-478.152 -254.7)"/>
      <path id="Path_2255" data-name="Path 2255" class="cls-1" d="M479.12,310.638a19.348,19.348,0,0,1-2.53,2.86c-2.31,1.98-4.289,1.32-4.949-1.65-.165-.715-.165-1.43-.275-2.31-.825.66-1.485,1.265-2.2,1.87a11.006,11.006,0,0,1-6.049,2.8,2.922,2.922,0,0,1-3.519-3.079,14.173,14.173,0,0,1,2.365-7.534c2.75-4.674,6.269-8.524,11.6-10.228a6.234,6.234,0,0,1,2.255-.33c1.43.11,1.98.88,1.595,2.255a3.1,3.1,0,0,0-.22.66c-.055.33-.44.715-.055.99.275.22.55-.165.825-.33a1.675,1.675,0,0,0,.385-.275c.495-.33,1.1-.715,1.65-.22.495.44.165,1.045-.055,1.54-1.265,2.915-2.585,5.829-3.849,8.744a8.619,8.619,0,0,0-.825,2.365,1.055,1.055,0,0,0,.33,1.1c.44.275.715-.165.99-.385a15.457,15.457,0,0,0,2.86-3.959,43.359,43.359,0,0,0,2.8-6.324,57.548,57.548,0,0,1,8.689-15.4,12.438,12.438,0,0,1,3.684-3.3c1.87-1.045,2.97-.385,2.97,1.815a10.991,10.991,0,0,1-.825,3.464,29.626,29.626,0,0,1-6.654,11.053c-1.43,1.485-2.75,3.08-4.124,4.619a15.177,15.177,0,0,0-3.464,8.249c-.275,2.255.495,3.024,2.75,2.75.495-.055,1.1-.33,1.375.33.22.495-.275.88-.6,1.21a5.807,5.807,0,0,1-1.43,1.1c-2.915,1.595-5.279.33-5.444-3.025A10.2,10.2,0,0,1,479.12,310.638Zm-14.958-2.8c-.055,1.87.77,2.42,2.2,1.65a10.869,10.869,0,0,0,4.344-4.289c.66-1.155.55-1.32-.77-1.32-.44,0-.99.22-1.155-.33-.22-.55.33-.88.715-1.1a6.184,6.184,0,0,0,2.31-2.97c.165-.385.6-.825.11-1.155-.385-.275-.825.055-1.155.33a21.428,21.428,0,0,0-5.444,6.1A6.9,6.9,0,0,0,464.163,307.833Zm29.31-22.216c-2.8,1.32-6.819,8.359-7.039,11.548A22.786,22.786,0,0,0,493.473,285.617Z" transform="translate(-440.021 -266.095)"/>
      <path id="Path_2256" data-name="Path 2256" class="cls-1" d="M574.307,300.011a13.323,13.323,0,0,0-1.7,2.75,43.305,43.305,0,0,0-4.014,8.909c-.55,2.035-1.7,2.75-3.849,2.97-.935.11-1.265-.385-1.155-1.21a3.209,3.209,0,0,1,.44-1.21c4.674-9.019,9.458-18.037,14.958-26.561.6-.99,1.32-1.925,1.925-2.86.22-.33.495-.825.165-1.21-.33-.33-.77-.165-1.1-.055-.6.165-1.21.385-1.815.495-.99.165-1.54-.33-1.375-1.375.22-1.21,1.155-1.65,2.145-1.98a22.442,22.442,0,0,1,5.389-.825c3.354-.33,6.764-.66,10.008.55a5.692,5.692,0,0,1,3.9,5.444,11.524,11.524,0,0,1-1.7,5.389c-2.8,4.289-6.269,7.809-11.218,9.513a21.424,21.424,0,0,1-5.554,1.265c-1.815.165-2.2.55-2.145,2.42a20.9,20.9,0,0,0,.99,5.829c.66,1.815,1.815,2.365,3.629,1.76a10.442,10.442,0,0,0,3.025-2.035c.935-.715,1.76-1.485,2.695-2.145.715-.55,1.21-.33,1.265.55a3.221,3.221,0,0,1-.715,2.53,19.1,19.1,0,0,1-5.279,4.069,7.729,7.729,0,0,1-2.475.825c-3.354.495-5.334-.88-6.049-4.234a22.787,22.787,0,0,1-.275-8.194,4.255,4.255,0,0,0,.11-.825C574.527,300.451,574.417,300.341,574.307,300.011Zm1.485-2.97c1.485-.165,3.025.055,4.509-.22a18.782,18.782,0,0,0,11.438-7.424,8.505,8.505,0,0,0,1.87-5.169,4.284,4.284,0,0,0-3.3-3.794,5.105,5.105,0,0,0-5.114,2.035c-2.969,4.4-5.884,8.8-8.8,13.2A2,2,0,0,0,575.791,297.042Z" transform="translate(-486.816 -264.982)"/>
      <path id="Path_2257" data-name="Path 2257" class="cls-1" d="M542.313,305.379a12.056,12.056,0,0,1-1.595,5.554,41.133,41.133,0,0,1-6.159,9.458c-1.925,2.09-4.179,3.794-7.314,3.739a8.179,8.179,0,0,1-3.629-1.045,3.227,3.227,0,0,1-1.65-2.64,8.907,8.907,0,0,1,.33-3.409,26.533,26.533,0,0,1,10.668-14.628,8.159,8.159,0,0,1,6.874-.99C541.653,301.915,542.368,303.179,542.313,305.379Zm-4.344-.11c0-1.375-.66-1.87-1.979-1.375a8.338,8.338,0,0,0-2.365,1.54,26.89,26.89,0,0,0-6.1,8.579,11.542,11.542,0,0,0-1.045,3.3c-.275,1.54.22,2.255,1.76,2.53,1.87.33,3.244-.6,4.454-1.815a30.5,30.5,0,0,0,4.124-5.994c.165-.22.33-.495.11-.77s-.495-.11-.77,0a15.186,15.186,0,0,1-1.485.44.63.63,0,0,1-.55-.055c-.22-.22,0-.44.165-.6.6-.66,1.32-1.265,1.87-1.98C537.034,307.964,538.024,306.864,537.969,305.269Z" transform="translate(-468.075 -275.574)"/>
      <path id="Path_2258" data-name="Path 2258" class="cls-1" d="M516.435,319.1a1.6,1.6,0,0,1-1.595,1.595,1.635,1.635,0,0,1-1.54-1.65,1.676,1.676,0,0,1,1.54-1.65A1.773,1.773,0,0,1,516.435,319.1Z" transform="translate(-464.193 -282.921)"/>
      <path id="Path_2259" data-name="Path 2259" class="cls-1" d="M563.737,317.5a1.625,1.625,0,0,1-.11,3.245,1.527,1.527,0,0,1-1.43-1.595A1.563,1.563,0,0,1,563.737,317.5Z" transform="translate(-486.2 -282.966)"/>
    </g>
  </g>
</svg>
