<svg xmlns="http://www.w3.org/2000/svg" viewBox="0 0 77.787 70.633">
  <defs>
    <style>
      .cls-1 {
        fill: #2fa766;
      }
    </style>
  </defs>
  <g id="_x32_qFZc3.tif_1_" transform="translate(0)">
    <g id="Group_2173" data-name="Group 2173" transform="translate(0 0)">
      <path id="Path_2160" data-name="Path 2160" class="cls-1" d="M543.5,24.568c.106-1.839.141-3.679.318-5.518a29.644,29.644,0,0,1,1.733-7.994,14.577,14.577,0,0,1,2.476-4.315A5.809,5.809,0,0,1,551.706,4.8a16.939,16.939,0,0,1,6.4.531,33.365,33.365,0,0,1,7.216,2.865,45.782,45.782,0,0,1,5.765,3.537,24.068,24.068,0,0,1,5.376,5.341,16.242,16.242,0,0,1,2.83,6.084,7.809,7.809,0,0,1,.212,2.865,11.73,11.73,0,0,1-.778,2.688,19.694,19.694,0,0,1-3.962,5.907,34.346,34.346,0,0,1-6.72,5.447,41.677,41.677,0,0,1-5.942,3.183,24.09,24.09,0,0,1-5.624,1.733,13.35,13.35,0,0,1-5.164-.035,5.621,5.621,0,0,1-2.688-1.486,11.905,11.905,0,0,1-2.617-3.962,26.145,26.145,0,0,1-1.8-6.3,50.378,50.378,0,0,1-.637-8.63ZM554.854,12.4c-.247,0-.672.035-1.1.071a4.852,4.852,0,0,0-3.113,1.379,9.563,9.563,0,0,0-2.334,3.891,20.913,20.913,0,0,0-.99,6.437,24.534,24.534,0,0,0,.318,4.563,13.829,13.829,0,0,0,1.486,4.563,7.169,7.169,0,0,0,2.582,2.759,6.2,6.2,0,0,0,2.971.672,17.45,17.45,0,0,0,5.235-.672,32.067,32.067,0,0,0,6.331-2.441,23.243,23.243,0,0,0,5.942-3.962,10.1,10.1,0,0,0,2.405-3.183,3.787,3.787,0,0,0,.389-2.334,8.086,8.086,0,0,0-1.415-3.183A15.374,15.374,0,0,0,569.109,17a35.462,35.462,0,0,0-8.807-3.855A26.971,26.971,0,0,0,554.854,12.4Z" transform="translate(-540.635 -4.088)"/>
      <path id="Path_2161" data-name="Path 2161" class="cls-1" d="M683.516,44.348c-.531-.071-1.061-.071-1.592-.177-1.627-.248-3.254-.46-4.846-.778a56.764,56.764,0,0,1-7.216-1.839,40.711,40.711,0,0,1-7.534-3.254,25.623,25.623,0,0,1-5.412-3.962,16.488,16.488,0,0,1-4.669-8.6A9.808,9.808,0,0,1,652,23.727a12.389,12.389,0,0,1,.283-2.264,16.182,16.182,0,0,1,2.37-5.765,15.565,15.565,0,0,1,4.315-4.421,45.236,45.236,0,0,1,10.151-5.235,51.448,51.448,0,0,1,8.6-2.334A42.346,42.346,0,0,1,683.3,3c.212,0,.177.141.177.248,0,1.592.036,3.148.036,4.74,0,.92,0,1.875.035,2.794,0,.141-.035.248-.142.283a8.251,8.251,0,0,1-.849.318c-1.839.283-3.714.5-5.553.814a64.6,64.6,0,0,0-10.682,2.653,35.883,35.883,0,0,0-4.669,1.91,10.072,10.072,0,0,0-5.094,6.048,2.16,2.16,0,0,0,.035,1.061A8.814,8.814,0,0,0,659.534,29a15.673,15.673,0,0,0,4.1,2.476,47.96,47.96,0,0,0,7.923,2.511c2.3.531,4.6.955,6.933,1.273,1.273.177,2.547.318,3.785.5a6.227,6.227,0,0,1,1.061.354.291.291,0,0,1,.141.212c.035,2.617.071,5.235.071,7.852A.32.32,0,0,1,683.516,44.348Z" transform="translate(-610.758 -3)"/>
      <path id="Path_2162" data-name="Path 2162" class="cls-1" d="M535.4,152.753v-5.27c0-.212.071-.283.283-.283,1.8,0,3.573,0,5.376.035a6.513,6.513,0,0,1,3.077.778,4.529,4.529,0,0,1,2.405,2.865,18.3,18.3,0,0,1,.389,1.91,4.284,4.284,0,0,1-.354,1.981,5.2,5.2,0,0,1-2.405,2.936,4.605,4.605,0,0,1-2.052.6c-2.157.035-4.35.035-6.508.071-.212,0-.212-.106-.212-.283Zm2.193.035h0v3.148c0,.212.035.283.283.283a30.76,30.76,0,0,0,4.032-.177,2.911,2.911,0,0,0,2.405-1.733,4.071,4.071,0,0,0,.354-1.839,2.949,2.949,0,0,0-1.2-2.334,4.942,4.942,0,0,0-2.688-.778c-.955-.071-1.875-.035-2.83-.035-.318,0-.318,0-.318.318C537.593,150.7,537.593,151.763,537.593,152.789Z" transform="translate(-535.4 -96.195)"/>
      <path id="Path_2163" data-name="Path 2163" class="cls-1" d="M688.036,146.5a6.876,6.876,0,0,1,4.174,1.379,5.2,5.2,0,0,1,1.981,3.466,6.36,6.36,0,0,1-.354,3.537,5.155,5.155,0,0,1-3.183,3.007,7.122,7.122,0,0,1-5.766-.248,5.264,5.264,0,0,1-3.006-4.28,6.168,6.168,0,0,1,.637-3.82,5.482,5.482,0,0,1,3.714-2.759C686.8,146.641,687.435,146.606,688.036,146.5Zm.035,1.945a8.134,8.134,0,0,0-.92.106,3.189,3.189,0,0,0-.778.212,3.128,3.128,0,0,0-2.158,2.37,6.967,6.967,0,0,0-.141,1.91,3.43,3.43,0,0,0,1.38,2.547,4.477,4.477,0,0,0,4,.6,3.366,3.366,0,0,0,2.228-1.875,4.5,4.5,0,0,0,.354-2.264,3.554,3.554,0,0,0-1.521-2.865A4.056,4.056,0,0,0,688.072,148.445Z" transform="translate(-630.028 -95.743)"/>
      <path id="Path_2164" data-name="Path 2164" class="cls-1" d="M726.209,146.692a6.42,6.42,0,0,1,4.74,1.839,5.185,5.185,0,0,1,1.415,3.042,6.347,6.347,0,0,1-.247,3.042,5.291,5.291,0,0,1-3.572,3.5,7.122,7.122,0,0,1-5.518-.354,5.34,5.34,0,0,1-3.007-4.1,6.352,6.352,0,0,1,.672-4.174,5.306,5.306,0,0,1,2.547-2.264A7.137,7.137,0,0,1,726.209,146.692Zm-.247,1.875a4.412,4.412,0,0,0-1.7.389,3.161,3.161,0,0,0-1.839,2.016,6.2,6.2,0,0,0-.212,1.981,3.434,3.434,0,0,0,1.981,3.042,4.457,4.457,0,0,0,2.865.354,3.525,3.525,0,0,0,2.865-2.264,4.905,4.905,0,0,0,.212-2.37,3.527,3.527,0,0,0-.884-1.945A4.328,4.328,0,0,0,725.961,148.567Z" transform="translate(-654.653 -95.864)"/>
      <path id="Path_2165" data-name="Path 2165" class="cls-1" d="M646.6,146.614h2.547a.382.382,0,0,1,.389.248c.6,1.2,1.2,2.37,1.839,3.537.707,1.379,1.415,2.724,2.122,4.1a.153.153,0,1,0,.283,0c1.238-2.441,2.511-4.846,3.714-7.286.248-.46.5-.707,1.061-.637a17.191,17.191,0,0,0,1.91,0c-.141.248-.248.5-.354.707-1.344,2.547-2.653,5.093-4,7.64-.531.99-1.026,1.981-1.557,2.971a.265.265,0,0,1-.283.177h-1.344a.28.28,0,0,1-.283-.177c-.566-1.061-1.132-2.158-1.7-3.219-.92-1.733-1.839-3.5-2.794-5.235-.46-.884-.955-1.8-1.415-2.688C646.635,146.72,646.6,146.684,646.6,146.614Z" transform="translate(-607.268 -95.786)"/>
      <path id="Path_2166" data-name="Path 2166" class="cls-1" d="M718.794,54a4.009,4.009,0,0,1-4,4.068,4.086,4.086,0,1,1,4-4.068Z" transform="translate(-648.76 -33.311)"/>
      <path id="Path_2167" data-name="Path 2167" class="cls-1" d="M571.714,150.248c-.177.354-.354.637-.495.955-1.061,2.016-2.122,4.068-3.183,6.084-.141.283-.283.531-.424.814a.291.291,0,0,1-.212.141h-2.193a.13.13,0,0,1-.106-.035,1.909,1.909,0,0,1,.248-.46c1.061-2.016,2.122-4,3.183-6.013.778-1.45,1.556-2.9,2.3-4.386a.413.413,0,0,1,.389-.248c.389,0,.778.035,1.167,0a.474.474,0,0,1,.5.283c.672,1.344,1.379,2.688,2.051,4.032.743,1.45,1.486,2.865,2.193,4.315.389.778.778,1.556,1.2,2.335.035.035.035.071.071.141a1.526,1.526,0,0,0-.177.035h-1.981a.413.413,0,0,1-.389-.248c-.849-1.592-1.7-3.183-2.547-4.81-.5-.92-.99-1.839-1.486-2.794A.245.245,0,0,1,571.714,150.248Z" transform="translate(-554.595 -96.131)"/>
      <path id="Path_2168" data-name="Path 2168" class="cls-1" d="M634.6,146.7h2.335c.071,0,.177.106.212.177.707,1.344,1.415,2.724,2.122,4.068.672,1.309,1.38,2.617,2.052,3.926.566,1.061,1.132,2.158,1.7,3.219a.13.13,0,0,0,.035.106h-2.441a.309.309,0,0,1-.318-.177l-3.289-6.473c-.778-1.556-1.556-3.077-2.37-4.634A.448.448,0,0,0,634.6,146.7Z" transform="translate(-599.512 -95.872)"/>
      <path id="Path_2169" data-name="Path 2169" class="cls-1" d="M613.847,172.435v1.627c0,.531,0,.531-.531.531h-9.762c-.354,0-.354,0-.354-.318v-1.627c0-.141.035-.248.212-.248H613.6A.6.6,0,0,0,613.847,172.435Z" transform="translate(-579.219 -112.482)"/>
      <path id="Path_2170" data-name="Path 2170" class="cls-1" d="M603.3,147.3h10.081c.672,0,.531-.071.531.531v1.415c0,.141-.035.212-.212.212H603.654c-.354,0-.354,0-.354-.389Z" transform="translate(-579.283 -96.255)"/>
      <path id="Path_2171" data-name="Path 2171" class="cls-1" d="M608.541,162.193h-5.023c-.283,0-.318,0-.318-.318v-1.592c0-.248.106-.283.318-.283h9.727c.566,0,.566,0,.566.566v1.344c0,.212-.071.283-.283.283Z" transform="translate(-579.219 -104.468)"/>
      <path id="Path_2172" data-name="Path 2172" class="cls-1" d="M642,195.355c-.5.035-.5.035-.5-.354v-3.254c0-.177.035-.248.248-.248.672.035,1.344,0,2.016.035a.953.953,0,0,1,.92.849.938.938,0,0,1-.707,1.061,3.664,3.664,0,0,1-.424.106,5.31,5.31,0,0,1,1.379,1.7c-.389.106-.566.071-.778-.248s-.46-.672-.672-.99a1.018,1.018,0,0,0-.884-.46c-.637,0-.637,0-.637.6C642,194.613,642,194.966,642,195.355Zm.778-2.122h0a3.733,3.733,0,0,0,.884-.071.626.626,0,0,0,0-1.238c-.5-.035-.99-.035-1.485-.035a.276.276,0,0,0-.141.141v1.026c0,.071.106.142.141.142A3.232,3.232,0,0,0,642.773,193.233Z" transform="translate(-603.972 -124.826)"/>
      <path id="Path_2173" data-name="Path 2173" class="cls-1" d="M672.2,192.36v2.971c-.036.035-.036.035-.071.035-.425.035-.425.035-.425-.354v-3.183c0-.106.035-.283.071-.283.177,0,.389-.106.531.106.354.531.743,1.061,1.1,1.627.283.424.6.849.92,1.309.035-.071.071-.106.071-.141V191.9c0-.389,0-.425.46-.354v3.537c0,.106-.036.283-.071.283-.177.035-.389.106-.531-.106-.318-.5-.672-.99-1.026-1.486-.283-.424-.566-.849-.884-1.273-.035-.035-.071-.106-.106-.142Z" transform="translate(-623.49 -124.837)"/>
      <path id="Path_2174" data-name="Path 2174" class="cls-1" d="M600.5,193.127h1.981c.177,0,.248,0,.248.212s-.106.212-.248.212h-1.733c-.212,0-.283.071-.283.283v.849c0,.177.071.248.248.248h1.981c.212,0,.283.106.248.283,0,.071-.106.142-.141.142h-2.618c-.141,0-.177-.071-.177-.177v-3.5c0-.141.035-.177.177-.177h2.476c.318,0,.106.248.177.424h-2.193c-.142,0-.212.035-.212.177A3.347,3.347,0,0,1,600.5,193.127Z" transform="translate(-577.151 -124.826)"/>
      <path id="Path_2175" data-name="Path 2175" class="cls-1" d="M577.2,194.915c.071.389.071.425-.283.425H574.3v-3.608c0-.212.071-.283.283-.248h2.3c.141,0,.283-.035.283.212,0,.212-.106.212-.283.212H574.8v1.238h2.016c.177,0,.212.071.212.212s-.035.212-.212.212h-1.769c-.177,0-.248.035-.248.248v.884c0,.212.071.248.248.248h1.769A1.323,1.323,0,0,1,577.2,194.915Z" transform="translate(-560.541 -124.81)"/>
      <path id="Path_2176" data-name="Path 2176" class="cls-1" d="M657.61,195.362a1.872,1.872,0,0,1-1.91-1.875,1.846,1.846,0,0,1,1.875-2.087,1.868,1.868,0,0,1,1.91,2.016A1.82,1.82,0,0,1,657.61,195.362Zm1.415-2.052a2.936,2.936,0,0,0-.071-.46,1.387,1.387,0,0,0-2.688-.035,2.892,2.892,0,0,0-.036.955,1.353,1.353,0,0,0,1.981,1.061A1.522,1.522,0,0,0,659.025,193.31Z" transform="translate(-613.149 -124.762)"/>
      <path id="Path_2177" data-name="Path 2177" class="cls-1" d="M711.364,192.457h-.389a1.146,1.146,0,0,0-1.521-.637.6.6,0,0,0-.46.566c0,.248.141.389.46.5.46.142.92.248,1.379.389a.919.919,0,0,1,.566,1.379,1.269,1.269,0,0,1-.6.531,2.064,2.064,0,0,1-1.875-.106,1.1,1.1,0,0,1-.531-.99,1.586,1.586,0,0,0,.389-.035c0,.035.035.035.035.071a1.316,1.316,0,0,0,1.981.6.549.549,0,0,0-.035-.955,5.972,5.972,0,0,0-.849-.283,7.955,7.955,0,0,1-.849-.283.768.768,0,0,1-.53-.814.919.919,0,0,1,.566-.849,1.862,1.862,0,0,1,2.051.248,3.226,3.226,0,0,1,.318.6C711.4,192.422,711.364,192.422,711.364,192.457Z" transform="translate(-647.201 -124.722)"/>
      <path id="Path_2178" data-name="Path 2178" class="cls-1" d="M616.4,193.925c.142.035.283.071.46.106a1.469,1.469,0,0,1-1.167,1.2,1.8,1.8,0,0,1-1.981-.637,2.372,2.372,0,0,1-.177-2.228,1.839,1.839,0,0,1,2.794-.672,1.052,1.052,0,0,1,.424.707,1.559,1.559,0,0,1-.354.071.269.269,0,0,1-.142-.071c-.354-.6-.743-.814-1.309-.672a1.249,1.249,0,0,0-1.061,1.167,2.3,2.3,0,0,0,.106,1.2,1.276,1.276,0,0,0,2.334.035C616.368,194.066,616.368,194,616.4,193.925Z" transform="translate(-585.772 -124.704)"/>
      <path id="Path_2179" data-name="Path 2179" class="cls-1" d="M696.847,193.91c.142.035.283.071.46.106a1.447,1.447,0,0,1-1.061,1.167,1.727,1.727,0,0,1-2.37-1.592,3.2,3.2,0,0,1,.106-1.167,1.763,1.763,0,0,1,2.087-1.1,1.409,1.409,0,0,1,1.167,1.026c-.318.177-.389.177-.566-.141a1.265,1.265,0,0,0-2.3.778,2.482,2.482,0,0,0,.106,1.026,1.22,1.22,0,0,0,1.167.884,1.1,1.1,0,0,0,1.167-.814C696.776,194.051,696.812,193.98,696.847,193.91Z" transform="translate(-637.813 -124.689)"/>
      <path id="Path_2180" data-name="Path 2180" class="cls-1" d="M629.044,191.924h-1.1c-.177,0-.248-.035-.248-.212s.071-.212.248-.212h2.688c.177,0,.248.035.248.212s-.106.212-.248.212h-.814c-.248-.035-.318.071-.283.283v2.9c0,.212-.035.248-.248.248-.177,0-.212-.071-.212-.212v-2.936A.689.689,0,0,1,629.044,191.924Z" transform="translate(-595.053 -124.826)"/>
      <path id="Path_2181" data-name="Path 2181" class="cls-1" d="M588.435,191.508v3.113c0,.318,0,.318.318.318h1.45c.177,0,.248.035.248.212s-.106.177-.248.177h-1.981c-.177,0-.248-.071-.248-.248v-3.219C587.94,191.437,587.94,191.4,588.435,191.508Z" transform="translate(-569.371 -124.798)"/>
      <path id="Path_2182" data-name="Path 2182" class="cls-1" d="M687.26,195.327h-.46v-3.608a.512.512,0,0,1,.071-.248,1.186,1.186,0,0,1,.354,0c.036,0,.036.071.036.141Z" transform="translate(-633.249 -124.797)"/>
    </g>
  </g>
</svg>
