<svg xmlns="http://www.w3.org/2000/svg" viewBox="0 0 112.98 91.522">
  <defs>
    <style>
      .cls-1 {
        fill: none;
        stroke: #15a556;
        stroke-miterlimit: 10;
        stroke-width: 3px;
      }
    </style>
  </defs>
  <path id="Path_1917" data-name="Path 1917" class="cls-1" d="M107.636,60.906h-2.758V42.375a8.358,8.358,0,0,0-2.413-5.861L85.312,19.362a8.209,8.209,0,0,0-5.861-2.413H71.866V8.674A8.276,8.276,0,0,0,63.592.4H19.634A8.276,8.276,0,0,0,11.36,8.674v8.274H1.879A1.361,1.361,0,0,0,.5,18.328v2.758a1.361,1.361,0,0,0,1.379,1.379H48.595a1.361,1.361,0,0,1,1.379,1.379V26.6a1.361,1.361,0,0,1-1.379,1.379H7.4A1.361,1.361,0,0,0,6.016,29.36h0v2.758A1.361,1.361,0,0,0,7.4,33.5H43.078a1.361,1.361,0,0,1,1.379,1.379h0v2.758a1.361,1.361,0,0,1-1.379,1.379H1.879A1.361,1.361,0,0,0,.5,40.393v2.758A1.361,1.361,0,0,0,1.879,44.53H37.562a1.361,1.361,0,0,1,1.379,1.379v2.758a1.361,1.361,0,0,1-1.379,1.379H11.446V72.025a16.51,16.51,0,1,0,33.011.776v-.776H66.436a16.51,16.51,0,1,0,33.011.776v-.776h8.274a2.723,2.723,0,0,0,2.758-2.758V63.751a2.926,2.926,0,0,0-2.844-2.844ZM28,80.127a8.274,8.274,0,1,1,8.274-8.274h0A8.389,8.389,0,0,1,28,80.127Zm54.9,0a8.231,8.231,0,1,1,8.188-8.274h0A8.2,8.2,0,0,1,82.9,80.127ZM96.6,44.444H71.866V25.223h7.585L96.6,42.375Z" transform="translate(1 1.1)"/>
</svg>
