<svg id="KEhTMg.tif_1_" xmlns="http://www.w3.org/2000/svg" viewBox="0 0 150.462 29.308">
  <defs>
    <style>
      .cls-1 {
        fill: #2fa766;
      }
    </style>
  </defs>
  <g id="Group_2183" data-name="Group 2183">
    <path id="Path_2296" data-name="Path 2296" class="cls-1" d="M402.8,26.793c-.751-.541-1.5-1.03-2.2-1.571a13.684,13.684,0,0,1-4.976-7.473A12.3,12.3,0,0,1,398.244,6.61,17.256,17.256,0,0,1,406.5,1.093a20.563,20.563,0,0,1,7.7-.978,19.089,19.089,0,0,1,11.646,4.592A14.4,14.4,0,0,1,429.584,9.7a2.9,2.9,0,0,1,.14.349c.017.035,0,.07.017.14h-.454q-9.088,0-18.158-.017a.648.648,0,0,0-.681.436q-3.667,7.8-7.35,15.574C403.01,26.374,402.923,26.531,402.8,26.793Z" transform="translate(-395.229 -0.076)"/>
    <path id="Path_2297" data-name="Path 2297" class="cls-1" d="M808.427,43.109h2.043c1.24-.017,2.462,0,3.7-.07a5,5,0,0,0,2.6-.89,3.763,3.763,0,0,0,1.694-3.492,1.556,1.556,0,0,0-1-1.432,5.546,5.546,0,0,0-1.833-.454c-2.235-.052-4.47-.017-6.722-.035-.315,0-.367.14-.437.384q-2.54,9.35-5.081,18.682c-.087.332-.21.4-.541.4-2.113-.017-4.225,0-6.338,0H796.1c.209-.821.419-1.589.611-2.357q2.593-9.638,5.15-19.293c.087-.332.21-.454.576-.454,5.64.017,11.3,0,16.936.017a7.976,7.976,0,0,1,4,.925,3.8,3.8,0,0,1,1.921,3.963,8.121,8.121,0,0,1-1.833,4.4,6.909,6.909,0,0,1-4.679,2.287c-.262.035-.524.035-.873.07,1.886,3.457,3.719,6.862,5.6,10.3-.21.017-.349.017-.489.017h-4.086a10.083,10.083,0,0,1-1.624,0,3.648,3.648,0,0,1-2.252-1.275,12.79,12.79,0,0,1-1.536-2.078c-1.711-3.108-3.37-6.233-5.046-9.358C808.514,43.319,808.5,43.249,808.427,43.109Z" transform="translate(-726.11 -28.16)"/>
    <path id="Path_2298" data-name="Path 2298" class="cls-1" d="M657.959,45.523h-5.744c.035-.14.035-.227.07-.332.244-.768.489-1.519.733-2.287a.373.373,0,0,1,.419-.314h11.646a3.334,3.334,0,0,1,.349.035c-.14.611-.28,1.2-.419,1.8-.524,2.1-1.03,4.208-1.624,6.3a7.927,7.927,0,0,1-1.955,3.527,4.35,4.35,0,0,1-3.317,1.362c-4.138-.035-8.293.035-12.431-.035a8.871,8.871,0,0,1-5.448-1.9,6.718,6.718,0,0,1-2.444-4.435c-.629-4.155,1.554-10.3,5.36-13.112a12.492,12.492,0,0,1,7.438-2.567c5.447-.017,10.895,0,16.325,0h.454a1.235,1.235,0,0,1-.07.3c-.262.786-.541,1.554-.786,2.34a.448.448,0,0,1-.541.367c-4-.017-8,.07-11.977-.035-3.649-.087-6.006,1.659-7.525,4.8a15.025,15.025,0,0,0-1.484,7.647A3.8,3.8,0,0,0,648.9,52.7c1.467.017,2.951.052,4.417.052a10.491,10.491,0,0,0,1.292-.07,1.674,1.674,0,0,0,1.257-.768,4.52,4.52,0,0,0,.524-1.048c.506-1.694.977-3.387,1.466-5.081C657.907,45.768,657.924,45.68,657.959,45.523Z" transform="translate(-595.354 -27.71)"/>
    <path id="Path_2299" data-name="Path 2299" class="cls-1" d="M494.472,73.7a10.907,10.907,0,0,1-.244,4.924,14.005,14.005,0,0,1-5.57,7.822,19.577,19.577,0,0,1-12.361,3.7c-1.17-.035-2.34-.192-3.6-.3.3-.629.541-1.135.768-1.659,1.065-2.392,2.148-4.766,3.2-7.158a8.279,8.279,0,0,0,.751-3.055,3.362,3.362,0,0,0-3.02-3.7,1.139,1.139,0,0,1-.192-.035c.035-.192.052-.367.087-.541Z" transform="translate(-459.174 -60.846)"/>
    <path id="Path_2300" data-name="Path 2300" class="cls-1" d="M1136.589,34.2c-.262.821-.489,1.571-.733,2.3-.035.087-.262.175-.384.175-2.06.017-4.121,0-6.181,0h-4.12a5.754,5.754,0,0,0-5.727,3.754c-.332.786-.559,1.624-.82,2.444a.966.966,0,0,0-.018.332h15.068c-.262.8-.489,1.571-.751,2.322-.017.07-.122.122-.192.14a1.68,1.68,0,0,1-.3,0h-14.282c-.209,2.3-.157,4.5,1.519,6.285a4.3,4.3,0,0,0,3.265,1.4c3-.017,6.006,0,9.009,0h.507c-.244.925-.454,1.781-.681,2.636-.018.07-.14.122-.21.157a.988.988,0,0,1-.227,0c-3.754,0-7.507.017-11.261,0a11.038,11.038,0,0,1-4.784-.925,6.789,6.789,0,0,1-3.806-4.906,16.785,16.785,0,0,1-.262-5.447,14.122,14.122,0,0,1,1.03-4.47,9.822,9.822,0,0,1,7.595-5.936,12.433,12.433,0,0,1,2.427-.227c4.662-.017,9.306-.017,13.968-.017A1.621,1.621,0,0,1,1136.589,34.2Z" transform="translate(-986.127 -28.242)"/>
    <path id="Path_2301" data-name="Path 2301" class="cls-1" d="M977.019,43.188h15.068c-.14.454-.262.856-.384,1.24-.122.4-.157.943-.436,1.135-.3.21-.821.087-1.257.087H977.071c-.367,0-.524.07-.559.489a8.484,8.484,0,0,0,.664,4.5A4.674,4.674,0,0,0,980.6,53.3a2.643,2.643,0,0,0,.524.035h9.69c-.017.14-.017.227-.035.314-.175.681-.367,1.379-.524,2.06-.07.332-.21.419-.541.419-3.736-.017-7.473.017-11.227-.017a15,15,0,0,1-2.793-.279,6.891,6.891,0,0,1-5.9-5.954,18.735,18.735,0,0,1-.1-5.5,13.433,13.433,0,0,1,1.135-4.365,9.731,9.731,0,0,1,7.071-5.5,13.556,13.556,0,0,1,2.793-.314c4.644-.035,9.288-.017,13.933-.017.1,0,.227.017.384.017-.245.786-.471,1.554-.733,2.3-.035.087-.21.14-.332.157-.978.017-1.955,0-2.933,0-2.409,0-4.836-.035-7.246.017a10,10,0,0,0-2.392.332,5.1,5.1,0,0,0-2.951,2.34,11.717,11.717,0,0,0-1.4,3.649A.688.688,0,0,0,977.019,43.188Z" transform="translate(-869.263 -28.221)"/>
  </g>
</svg>
