<svg xmlns="http://www.w3.org/2000/svg" viewBox="0 0 144.462 36.132">
  <defs>
    <style>
      .cls-1 {
        fill: #2fa766;
      }
    </style>
  </defs>
  <g id="FzbR4h.tif_1_" transform="translate(0)">
    <g id="Group_2175" data-name="Group 2175" transform="translate(0 0)">
      <path id="Path_2188" data-name="Path 2188" class="cls-1" d="M483.7,36.132V0H628.162V36.132H483.7ZM511.766,28.1c0-.13.033-.26.033-.358V8.391c0-.293-.1-.39-.39-.39h-5.236c-.325,0-.423.1-.423.423v6.309c0,.325-.065.455-.423.455q-2.683-.049-5.366,0c-.358,0-.423-.1-.423-.455V8.391c0-.293-.1-.39-.39-.39-1.724,0-3.48.033-5.2,0-.358,0-.455.1-.455.455V27.709a2,2,0,0,0,.032.423h5.594c.358,0,.455-.1.455-.423V20.716c0-.293.065-.423.39-.423,1.821.033,3.61.033,5.431,0,.325,0,.39.1.39.423v7.025c0,.325.1.39.39.39h5.236C511.506,28.131,511.636,28.1,511.766,28.1Zm108.4.033c-.13-.2-.195-.325-.26-.423-2.179-3.252-4.325-6.5-6.537-9.757a.588.588,0,0,1,0-.748c2.049-2.959,4.065-5.919,6.082-8.878a.656.656,0,0,0,.13-.26c-.1,0-.163-.033-.228-.033h-6.342a.664.664,0,0,0-.423.26l-2.732,4.1c-.163.26-.358.52-.553.781-.065-.1-.13-.163-.2-.26-1.008-1.529-2.016-3.057-2.992-4.618A.5.5,0,0,0,605.559,8h-6.147a2,2,0,0,0-.423.033,2.018,2.018,0,0,0,.26.39c2.016,2.927,4.033,5.886,6.081,8.813a.5.5,0,0,1,0,.683c-2.179,3.285-4.358,6.569-6.537,9.822a3.523,3.523,0,0,0-.2.358,1.83,1.83,0,0,1,.228.033H605.2a.5.5,0,0,0,.39-.228c.911-1.333,1.789-2.667,2.667-4,.358-.52.683-1.041,1.073-1.594.1.13.163.228.228.325,1.106,1.724,2.211,3.48,3.317,5.2a.547.547,0,0,0,.553.293h6.732Zm-85.63-5.171H523.539V13.139h10.992V8c-.13,0-.26-.033-.358-.033H517.88c-.325,0-.423.065-.423.39V27.676c0,.13.033.26.033.39h17.041Zm60.165,0H583.7V13.139H594.7V8H578.078c-.358,0-.455.1-.455.423V27.709a1.577,1.577,0,0,0,.033.39H594.7Zm-30.115-1.724c-.065-.26-.13-.39-.163-.553-1.106-4.1-2.244-8.163-3.35-12.261a.456.456,0,0,0-.52-.423c-1.691.033-3.415,0-5.106,0a2,2,0,0,0-.423.033,2.685,2.685,0,0,0,.1.358c1.984,6.472,3.968,12.911,5.919,19.383.1.293.2.358.488.358h5.887a.467.467,0,0,0,.52-.39q2.732-8.927,5.529-17.854c.2-.618.358-1.236.553-1.854A.354.354,0,0,0,573.851,8h-5.4c-.2,0-.26.1-.325.26l-2.439,8.878C565.33,18.472,564.972,19.806,564.582,21.237Zm-9.2,6.862c0-.163.033-.293.033-.423V23.448c0-.358-.1-.455-.455-.455-2.732.033-5.5,0-8.228,0h-.455V8.065h-6.016V28.131C545.3,28.1,550.337,28.1,555.378,28.1Zm-31.253-7.968h8.586c.228,0,.26-.13.26-.293v-4.1c0-.26-.1-.325-.325-.325H529.1a.726.726,0,0,0-.423.2l-4.2,4.2A.843.843,0,0,0,524.125,20.131ZM584.29,20.1c.1,0,.162.033.228.033h8.26c.26,0,.325-.13.325-.358V15.741c0-.26-.1-.358-.358-.358h-3.512a.619.619,0,0,0-.423.163c-1.431,1.4-2.829,2.829-4.26,4.228C584.453,19.9,584.387,19.968,584.29,20.1Z" transform="translate(-483.7)"/>
    </g>
  </g>
</svg>
