<svg xmlns="http://www.w3.org/2000/svg" viewBox="0 0 56.185 67.576">
  <defs>
    <style>
      .cls-1 {
        fill: #2fa766;
      }
    </style>
  </defs>
  <g id="Group_2180" data-name="Group 2180" transform="translate(0)">
    <rect id="Rectangle_354" data-name="Rectangle 354" class="cls-1" width="3.502" height="13.751" transform="translate(7.779 6.525)"/>
    <path id="Path_2260" data-name="Path 2260" class="cls-1" d="M943.7,149.829a2.076,2.076,0,0,1-2.1-2.212V137.7h-3.5v9.77a5.614,5.614,0,0,0,11.207,0V137.7h-3.5l-.037,9.88a2,2,0,0,1-2.065,2.249" transform="translate(-923.464 -123.58)"/>
    <path id="Path_2261" data-name="Path 2261" class="cls-1" d="M981.785,164.564a12.293,12.293,0,0,0-3.982-.664c-4.461,0-5.6,2.728-5.6,4.608s1.069,3.281,3.1,4.129,3.428,1.327,3.428,2.544-1.143,1.88-2.433,1.88a8.881,8.881,0,0,1-3.871-1.29v3.281a14.829,14.829,0,0,0,3.982.7c1.88,0,6.3-.147,6.3-4.977,0-1.843-.885-3.207-3.613-4.276-2.175-.848-2.875-1.622-2.875-2.4,0-1.032,1.217-1.659,2.1-1.659a11.887,11.887,0,0,1,3.465,1.032Z" transform="translate(-944.993 -140.121)"/>
    <path id="Path_2262" data-name="Path 2262" class="cls-1" d="M1002.393,199.133l1.7-6.157,1.7,6.157Zm3.613-9.733h-3.834L996.9,205.621h3.65l1.032-3.613h4.977l1.032,3.613h3.687Z" transform="translate(-960.587 -156.22)"/>
    <path id="Path_2263" data-name="Path 2263" class="cls-1" d="M994.806,261.633l-1.106,1.032-.7-1.032,2.028-1.733h1.253v8.258h-1.475Z" transform="translate(-958.125 -200.73)"/>
    <path id="Path_2264" data-name="Path 2264" class="cls-1" d="M1009.344,263.8c.7,0,1.069-.627,1.069-1.548,0-.959-.332-1.548-1.069-1.548s-1.069.59-1.069,1.548c.037.922.332,1.548,1.069,1.548m-2.064,2.765a3.22,3.22,0,0,0,1.364.369c1.585,0,1.88-1.77,1.917-2.765l-.037-.037a1.608,1.608,0,0,1-1.511.848c-1.143,0-2.212-.885-2.212-2.691,0-1.622.848-2.691,2.433-2.691,2.1,0,2.691,1.733,2.691,3.871,0,2.433-.664,4.645-3.208,4.645a3.643,3.643,0,0,1-1.511-.295Z" transform="translate(-966.837 -200.54)"/>
    <path id="Path_2265" data-name="Path 2265" class="cls-1" d="M1022.337,266.457a3.849,3.849,0,0,0,1.659.405,1.378,1.378,0,0,0,1.512-1.364c0-.958-.848-1.253-1.585-1.253a2.794,2.794,0,0,0-.59.037v-1.143h.258c.958,0,1.917-.221,1.917-1.253,0-.774-.664-1.106-1.327-1.106a4.382,4.382,0,0,0-1.585.406l-.073-1.254a5.749,5.749,0,0,1,1.991-.332c1.438,0,2.47.737,2.47,2.1a1.781,1.781,0,0,1-1.585,1.917v.037c.774.221,1.733.516,1.733,1.991,0,1.659-1.364,2.47-2.876,2.47a5.584,5.584,0,0,1-1.954-.369Z" transform="translate(-976.623 -200.54)"/>
    <path id="Path_2266" data-name="Path 2266" class="cls-1" d="M1039.481,263.8c.7,0,1.069-.627,1.069-1.548,0-.959-.332-1.548-1.069-1.548s-1.069.59-1.069,1.548c0,.922.3,1.548,1.069,1.548m-2.1,2.765a3.221,3.221,0,0,0,1.364.369c1.585,0,1.88-1.77,1.917-2.765l-.037-.037a1.608,1.608,0,0,1-1.511.848c-1.143,0-2.212-.885-2.212-2.691,0-1.622.848-2.691,2.433-2.691,2.1,0,2.691,1.733,2.691,3.871,0,2.433-.664,4.645-3.207,4.645a3.642,3.642,0,0,1-1.511-.295Z" transform="translate(-985.84 -200.54)"/>
    <path id="Path_2267" data-name="Path 2267" class="cls-1" d="M951.119,152.266H934.934l-33.069-33.18V102.829h16.184l33.069,33.18Zm3.428,3.465h0l.037-21.124h0L919.487,99.4h-21.05v.037H898.4v21.124h0l35.1,35.207h0l21.051-.037Z" transform="translate(-898.4 -99.4)"/>
    <path id="Path_2268" data-name="Path 2268" class="cls-1" d="M943.7,149.829a2.076,2.076,0,0,1-2.1-2.212V137.7h-3.5v9.77a5.614,5.614,0,0,0,11.207,0V137.7h-3.5l-.037,9.88a2,2,0,0,1-2.065,2.249" transform="translate(-923.464 -123.58)"/>
    <path id="Path_2269" data-name="Path 2269" class="cls-1" d="M981.785,164.664A12.292,12.292,0,0,0,977.8,164c-4.461,0-5.6,2.728-5.6,4.608s1.069,3.281,3.1,4.129,3.428,1.327,3.428,2.544-1.143,1.88-2.433,1.88a8.881,8.881,0,0,1-3.871-1.29v3.281a14.829,14.829,0,0,0,3.982.7c1.88,0,6.3-.147,6.3-4.977,0-1.843-.885-3.207-3.613-4.277-2.175-.848-2.875-1.622-2.875-2.4,0-1.032,1.217-1.659,2.1-1.659a11.887,11.887,0,0,1,3.465,1.032Z" transform="translate(-944.993 -140.184)"/>
  </g>
</svg>
