<svg xmlns="http://www.w3.org/2000/svg" xmlns:xlink="http://www.w3.org/1999/xlink" viewBox="0 0 176.071 83">
  <defs>
    <style>
      .cls-1 {
        fill: #b5d196;
      }

      .cls-2 {
        fill: url(#linear-gradient);
      }

      .cls-3 {
        fill: url(#linear-gradient-2);
      }

      .cls-4 {
        fill: url(#linear-gradient-3);
      }

      .cls-5 {
        opacity: 0.4;
        fill: url(#linear-gradient-4);
      }

      .cls-6 {
        fill: #fff;
      }

      .cls-7 {
        fill: #b9b8bc;
      }

      .cls-8 {
        fill: #4c94d0;
      }

      .cls-9 {
        fill: #f89c4d;
      }

      .cls-10 {
        fill: #17713a;
      }
    </style>
    <linearGradient id="linear-gradient" y1="0.5" x2="1" y2="0.5" gradientUnits="objectBoundingBox">
      <stop offset="0" stop-color="#f3f3f3"/>
      <stop offset="0.146" stop-color="#f0f1f0"/>
      <stop offset="0.276" stop-color="#e8ede7"/>
      <stop offset="0.399" stop-color="#dbe7d9"/>
      <stop offset="0.518" stop-color="#c9dec6"/>
      <stop offset="0.635" stop-color="#b2d3ae"/>
      <stop offset="0.749" stop-color="#95c792"/>
      <stop offset="0.862" stop-color="#72ba73"/>
      <stop offset="0.971" stop-color="#3fad51"/>
      <stop offset="1" stop-color="#24aa4a"/>
    </linearGradient>
    <linearGradient id="linear-gradient-2" y1="0.5" x2="1" y2="0.5" gradientUnits="objectBoundingBox">
      <stop offset="0" stop-color="#f3f3f3"/>
      <stop offset="0.116" stop-color="#e3ebe2"/>
      <stop offset="0.356" stop-color="#bcd8b8"/>
      <stop offset="0.697" stop-color="#7dbe7d"/>
      <stop offset="1" stop-color="#24aa4a"/>
    </linearGradient>
    <linearGradient id="linear-gradient-3" x1="0" y1="0.503" x2="1" y2="0.503" xlink:href="#linear-gradient-2"/>
    <linearGradient id="linear-gradient-4" x1="85.321" y1="15.57" x2="89.035" y2="15.57" gradientUnits="objectBoundingBox">
      <stop offset="0" stop-color="#f3f3f3"/>
      <stop offset="1" stop-color="#24aa4a"/>
    </linearGradient>
  </defs>
  <g id="Group_1913" data-name="Group 1913" transform="translate(-43 -10)">
    <g id="Group_1912" data-name="Group 1912" transform="translate(43 10)">
      <path id="Path_1882" data-name="Path 1882" class="cls-1" d="M98.949.059A.374.374,0,0,1,98.7.121C98.7,0,98.762-.066,98.949.059Z" transform="translate(-37.329 0.009)"/>
      <path id="Path_1883" data-name="Path 1883" class="cls-2" d="M3.1,65.3s20.453,8.331,46-1.554c11.377-4.414,21.448-11.625,25.054-18.091C81.37,32.723,66.947,22.9,66.947,22.9s6.714,10.631,1.8,19.645C64.087,51.062,50.161,60.636,29.77,65.3,16.4,67.1,17.212,66.729,3.1,65.3Z" transform="translate(-1.162 -8.658)"/>
      <path id="Path_1884" data-name="Path 1884" class="cls-3" d="M42.454,9.893a2.484,2.484,0,0,1,1.119.435L84.418,45.391c.746.684-1.8,3.606-2.549,2.922l-39.6-33.944L2.667,48.313C1.921,49-.628,46.012.118,45.391L15.971,31.776V9.955h7.771V25.062L40.962,10.328a2.214,2.214,0,0,1,1.492-.435Z" transform="translate(0.018 -3.733)"/>
      <rect id="Rectangle_87" data-name="Rectangle 87" class="cls-4" width="76.715" height="4.103" transform="translate(4.301 74.98)"/>
      <rect id="Rectangle_88" data-name="Rectangle 88" class="cls-5" width="4.103" height="15.231" transform="translate(4.425 63.479)"/>
      <rect id="Rectangle_89" data-name="Rectangle 89" class="cls-6" width="16.785" height="11.377" transform="translate(12.818 71.375)"/>
      <rect id="Rectangle_90" data-name="Rectangle 90" class="cls-6" width="16.785" height="11.377" transform="translate(34.763 71.623)"/>
      <rect id="Rectangle_91" data-name="Rectangle 91" class="cls-6" width="16.785" height="11.377" transform="translate(56.211 71.126)"/>
      <g id="Group_1909" data-name="Group 1909" transform="translate(37.933 66.362)">
        <g id="Group_1908" data-name="Group 1908">
          <path id="Path_1885" data-name="Path 1885" class="cls-7" d="M65.787,1059.1A4.7,4.7,0,0,0,61,1063.638a5.772,5.772,0,0,0,1.306,3.668,4.54,4.54,0,0,1,1.181,2.673v2.3a.916.916,0,0,0,.933.932h.373v.187a.933.933,0,1,0,1.865,0v-.187h.373a.956.956,0,0,0,.933-.932v-2.3a4.38,4.38,0,0,1,1.181-2.673,5.847,5.847,0,0,0,1.306-3.668A4.552,4.552,0,0,0,65.787,1059.1Zm0,.373a4.34,4.34,0,0,1,4.414,4.165,5.35,5.35,0,0,1-1.181,3.419,5.284,5.284,0,0,0-1.243,2.735H63.922a5.52,5.52,0,0,0-1.243-2.735,5.35,5.35,0,0,1-1.181-3.419A4.155,4.155,0,0,1,65.787,1059.473Zm-1.927,10.755h3.854v1.119H63.86Zm0,1.492h3.854v.559a.557.557,0,0,1-.56.559H64.481a.557.557,0,0,1-.56-.559v-.559Zm1.368,1.554h1.119v.187a.56.56,0,0,1-1.119,0Z" transform="translate(-61 -1059.1)"/>
        </g>
      </g>
      <g id="Group_1910" data-name="Group 1910" transform="translate(60.19 66.238)">
        <path id="Path_1886" data-name="Path 1886" class="cls-8" d="M101.96,1058.9c.062,0,.062,0,.124.062,2.611,2.922,5.036,6.341,5.036,9.574,0,3.171-2.3,5.782-5.16,5.782s-5.16-2.611-5.16-5.782,2.425-6.652,5.036-9.574c0-.062.062-.062.124-.062Zm-.062.435c-2.549,2.86-4.849,6.217-4.849,9.139a4.878,4.878,0,1,0,9.7,0c0-2.922-2.3-6.279-4.849-9.139Zm3.233,8.579a.165.165,0,0,1,.187.187,4.435,4.435,0,0,1-1.679,3.73.181.181,0,1,1-.187-.311,4.037,4.037,0,0,0,1.492-3.419.165.165,0,0,1,.187-.187Z" transform="translate(-96.8 -1058.9)"/>
      </g>
      <path id="Path_1887" data-name="Path 1887" class="cls-9" d="M28.784,107.3a.165.165,0,0,0-.187.187,9.233,9.233,0,0,1-2.922,5.657,6.186,6.186,0,0,0-2.176,4.849,4.231,4.231,0,0,0,1.368,3.046,7.57,7.57,0,0,0,2.984,1.741c.124.062.249,0,.249-.124a.228.228,0,0,0-.062-.187,4.854,4.854,0,0,1-1.368-2.984,3.688,3.688,0,0,1,.622-1.8,9.913,9.913,0,0,0,.995.746.858.858,0,0,1,.249.187.217.217,0,0,1,.124.062h.187a3.127,3.127,0,0,0,.808-.995,4.819,4.819,0,0,0,.435-2.549,5.98,5.98,0,0,1,1.927,3.979,4.628,4.628,0,0,1-1.679,3.357.176.176,0,0,0,0,.311.228.228,0,0,0,.187.062,5.069,5.069,0,0,0,4.414-4.849,9.763,9.763,0,0,0-1.243-5.036,21.378,21.378,0,0,0-4.849-5.533C28.909,107.3,28.846,107.3,28.784,107.3Zm.124.622a20.563,20.563,0,0,1,4.476,5.16,9.651,9.651,0,0,1,1.181,4.849,4.674,4.674,0,0,1-3.295,4.227,4.915,4.915,0,0,0,1.306-3.171c0-1.368-.622-2.984-2.487-4.787a.282.282,0,0,0-.311,0,.228.228,0,0,0-.062.187,4.306,4.306,0,0,1-.373,2.922,3.124,3.124,0,0,1-.56.746c-.062,0-.062-.062-.187-.124A7.135,7.135,0,0,1,27.417,117c-.124-.062-.249-.062-.311.062v.062a5.306,5.306,0,0,0-.746,2.238,4.609,4.609,0,0,0,.933,2.611,6.7,6.7,0,0,1-2.114-1.306,3.767,3.767,0,0,1-1.243-2.735,5.635,5.635,0,0,1,2.052-4.538A9.567,9.567,0,0,0,28.909,107.922Z" transform="translate(-8.88 -40.588)"/>
      <g id="Group_1911" data-name="Group 1911" transform="translate(35.82 48.062)">
        <path id="Path_1888" data-name="Path 1888" class="cls-10" d="M64.936,88.615l7.4-11.315V92.531H70.282V84.014L64.936,92.22l-5.346-8.206v8.579H57.6V77.362Z" transform="translate(-57.6 -77.3)"/>
        <path id="Path_1889" data-name="Path 1889" class="cls-10" d="M84.5,77.6h1.989V92.707H84.5Z" transform="translate(-67.777 -77.413)"/>
        <path id="Path_1890" data-name="Path 1890" class="cls-10" d="M107.485,77.5a13.087,13.087,0,0,1,1.554.124,12.531,12.531,0,0,1,1.43.435,4.472,4.472,0,0,1,1.306.746,6.512,6.512,0,0,1,.684.5l-1.43,1.43a5.693,5.693,0,0,0-3.481-1.243,5.237,5.237,0,0,0-2.176.435,6.062,6.062,0,0,0-3.046,3.046h0a6.166,6.166,0,0,0-.435,2.176,5.046,5.046,0,0,0,.435,2.176,5.858,5.858,0,0,0,1.243,1.8,5.205,5.205,0,0,0,1.8,1.243,6.165,6.165,0,0,0,2.176.435,5.045,5.045,0,0,0,2.176-.435,6.092,6.092,0,0,0,1.368-.808l1.43,1.43a6.512,6.512,0,0,1-.684.5,7,7,0,0,1-1.306.746,7.1,7.1,0,0,1-2.984.56,7.419,7.419,0,0,1-2.922-.56,7.875,7.875,0,0,1-4.165-4.165,7.909,7.909,0,0,1,0-5.844,7.988,7.988,0,0,1,1.679-2.487,7.332,7.332,0,0,1,2.487-1.679,8.065,8.065,0,0,1,2.114-.5h.746Z" transform="translate(-73.603 -77.376)"/>
        <path id="Path_1891" data-name="Path 1891" class="cls-10" d="M134.393,92.631h-2.176L131.1,90.144h-6.4l-1.119,2.487H121.4L127.865,77.4Zm-6.528-4.1h2.487c-.435-.933-.808-1.989-1.243-3.046-.435-1.119-.808-2.114-1.243-3.046-.435.933-.808,1.989-1.243,3.046-.435,1.119-.808,2.114-1.243,3.046Z" transform="translate(-81.737 -77.338)"/>
        <path id="Path_1892" data-name="Path 1892" class="cls-10" d="M148.909,90.517a2.194,2.194,0,0,0,.808-.5,1.7,1.7,0,0,0,.56-.746,2.3,2.3,0,0,0,.249-.933,1.655,1.655,0,0,0-.187-.746,2.233,2.233,0,0,0-.435-.622,2.567,2.567,0,0,0-.684-.435c-.249-.124-.56-.249-.808-.373a3.078,3.078,0,0,0-.808-.249,7.838,7.838,0,0,1-1.8-.746,5.981,5.981,0,0,1-1.368-1.119,3.26,3.26,0,0,1-.622-1.119,4.02,4.02,0,0,1-.249-1.243,4.746,4.746,0,0,1,.311-1.679,4.117,4.117,0,0,1,.933-1.368,3.81,3.81,0,0,1,1.43-.933,4.017,4.017,0,0,1,1.679-.311,4.292,4.292,0,0,1,1.554.249,3.55,3.55,0,0,1,1.306.808,3.618,3.618,0,0,1,1.306,2.114l-1.989.435a2.608,2.608,0,0,0-.56-.87,2.257,2.257,0,0,0-1.616-.684,1.986,1.986,0,0,0-.87.187,3.123,3.123,0,0,0-.746.5,2.236,2.236,0,0,0-.5.746,2.194,2.194,0,0,0-.186.87,1.839,1.839,0,0,0,.124.622,1.25,1.25,0,0,0,.249.5l.373.373a2.181,2.181,0,0,0,.5.311,4.929,4.929,0,0,0,.56.249l.56.187a2.891,2.891,0,0,0,.56.187,4.283,4.283,0,0,1,.5.187c.373.124.746.311,1.057.435a8.1,8.1,0,0,1,.933.622,4.97,4.97,0,0,1,.808.808,2.992,2.992,0,0,1,.5.995,3.521,3.521,0,0,1,.187,1.119,3.7,3.7,0,0,1-.373,1.679,4.568,4.568,0,0,1-.995,1.368,5.082,5.082,0,0,1-1.492.933,4.123,4.123,0,0,1-1.741.311,4.989,4.989,0,0,1-1.865-.373,3.992,3.992,0,0,1-1.554-1.119,5.712,5.712,0,0,1-.995-1.679l2.052-.435a2.761,2.761,0,0,0,2.425,1.554A1.22,1.22,0,0,0,148.909,90.517Z" transform="translate(-90.098 -77.338)"/>
        <path id="Path_1893" data-name="Path 1893" class="cls-10" d="M172.293,92.631h-2.176L169,90.144h-6.4l-1.119,2.487H159.3L165.765,77.4Zm-6.465-4.1h2.487c-.435-.933-.808-1.989-1.243-3.046-.435-1.119-.808-2.114-1.243-3.046-.435.933-.808,1.989-1.243,3.046-.435,1.119-.808,2.114-1.243,3.046Z" transform="translate(-96.075 -77.338)"/>
        <path id="Path_1894" data-name="Path 1894" class="cls-10" d="M197.7,92.831,191.3,77.6h2.114l4.29,10.382,4.29-10.382h2.114Z" transform="translate(-108.181 -77.413)"/>
        <path id="Path_1895" data-name="Path 1895" class="cls-10" d="M222.779,77.6v1.989h-6.528v4.538h4.911v1.989h-4.911v4.538h6.528v1.989H214.2V77.6Z" transform="translate(-116.845 -77.413)"/>
        <path id="Path_1896" data-name="Path 1896" class="cls-10" d="M230.3,77.6h4.725a6.054,6.054,0,0,1,2.114.373,5.9,5.9,0,0,1,1.679,1.057,4.417,4.417,0,0,1,1.057,1.492,4.94,4.94,0,0,1,.311,1.8v.5a3.648,3.648,0,0,1-.249,1.43,4.405,4.405,0,0,1-.684,1.306,3.184,3.184,0,0,1-.746.808,6.337,6.337,0,0,1-.933.5l-.684.311.435.622,3.171,4.911h-2.487l-3.419-5.284h-2.238v5.284H230.3Zm5.036,7.771h0a3.012,3.012,0,0,0,1.119-.187,3.279,3.279,0,0,0,.87-.622,2.434,2.434,0,0,0,.622-.995,3.011,3.011,0,0,0,.187-1.119,3.52,3.52,0,0,0-.187-1.119,3.454,3.454,0,0,0-.622-.933h0a2.4,2.4,0,0,0-1.119-.622,4.848,4.848,0,0,0-1.368-.187h-2.487v5.782h2.984Z" transform="translate(-122.936 -77.413)"/>
        <path id="Path_1897" data-name="Path 1897" class="cls-10" d="M253.165,77.7a8.876,8.876,0,0,1,2.611.56,8.162,8.162,0,0,1,2.487,1.616h0a6.114,6.114,0,0,1,1.492,2.425,8.832,8.832,0,0,1,0,5.844,6.114,6.114,0,0,1-1.492,2.425h0a7.152,7.152,0,0,1-2.487,1.616,8.051,8.051,0,0,1-3.046.56H249V77.7h4.165Zm-.373,13.055a6.5,6.5,0,0,0,2.238-.373,5.472,5.472,0,0,0,1.8-1.119,4.9,4.9,0,0,0,1.119-1.8,6.9,6.9,0,0,0,0-4.476,5.473,5.473,0,0,0-1.119-1.8A6.043,6.043,0,0,0,255.03,80a6.5,6.5,0,0,0-2.238-.373h-1.679V90.693h1.679Z" transform="translate(-130.01 -77.451)"/>
        <path id="Path_1898" data-name="Path 1898" class="cls-10" d="M277.979,77.6v1.989h-6.528v4.538h4.911v1.989h-4.911v4.538h6.528v1.989H269.4V77.6Z" transform="translate(-137.728 -77.413)"/>
      </g>
    </g>
  </g>
</svg>
