<svg xmlns="http://www.w3.org/2000/svg" viewBox="0 0 144.461 43.447">
  <defs>
    <style>
      .cls-1 {
        fill: #2fa766;
      }
    </style>
  </defs>
  <g id="Gvuw8R.tif_1_" transform="translate(0)">
    <g id="Group_2174" data-name="Group 2174" transform="translate(0 0)">
      <path id="Path_2183" data-name="Path 2183" class="cls-1" d="M708.032,274.8v18.608l.947-.947a10.037,10.037,0,0,1,5.684-2.436,11.591,11.591,0,0,1,7.477,1.624,12.539,12.539,0,0,1,4.229,4.2,15.015,15.015,0,0,1,2.064,5.447,16.189,16.189,0,0,1,.135,4.432,15.946,15.946,0,0,1-1.083,4.331,12.742,12.742,0,0,1-7.375,7.409,11.267,11.267,0,0,1-7.375.3,7.954,7.954,0,0,1-4.432-3.18.736.736,0,0,0-.135-.169c-.034,0-.034,0-.068.034v2.91h-9V274.8Zm5.413,23.31c-.237.034-.609.034-.981.1a5.136,5.136,0,0,0-3.586,2.2,6.521,6.521,0,0,0-.812,5.785,5.123,5.123,0,0,0,3.112,3.451,6.588,6.588,0,0,0,3.789.3,5.133,5.133,0,0,0,3.857-3.079,6.925,6.925,0,0,0,.507-3.417,6.2,6.2,0,0,0-.846-2.673A5.617,5.617,0,0,0,713.445,298.11Z" transform="translate(-616.584 -274.8)"/>
      <path id="Path_2184" data-name="Path 2184" class="cls-1" d="M827.273,335.475H808.226c.034.508.067.981.135,1.455a5.232,5.232,0,0,0,1.32,2.91,4.837,4.837,0,0,0,3.045,1.421,13.992,13.992,0,0,0,2.064.034,4.148,4.148,0,0,0,3.315-2.165.372.372,0,0,1,.338-.2h8.424a11,11,0,0,1-1.692,3.857,11.751,11.751,0,0,1-6.7,4.567,17.622,17.622,0,0,1-7.748.372,14.228,14.228,0,0,1-6.935-3.011,12.208,12.208,0,0,1-3.958-6.09,16.868,16.868,0,0,1-.507-6.868,14.471,14.471,0,0,1,1.489-5.041,12.31,12.31,0,0,1,4.8-5.041,14.262,14.262,0,0,1,4.669-1.658,17.375,17.375,0,0,1,4.2-.2,14.843,14.843,0,0,1,4.026.744,12.234,12.234,0,0,1,4.3,2.4,12.525,12.525,0,0,1,3.789,6.259,17.119,17.119,0,0,1,.609,3.688c0,.068.034.169.034.237C827.273,333.885,827.273,334.663,827.273,335.475Zm-18.81-5.447h10.42a5.01,5.01,0,0,0-4.737-4.161C810.729,325.664,808.8,327.8,808.463,330.028Z" transform="translate(-682.811 -304.553)"/>
      <path id="Path_2185" data-name="Path 2185" class="cls-1" d="M472.184,347.462V334.91a17.74,17.74,0,0,0-.2-3.552,8.787,8.787,0,0,0-.575-1.895,3.686,3.686,0,0,0-6.225-.406,5.433,5.433,0,0,0-.71,1.861,16.971,16.971,0,0,0-.3,3.688V347.5H455.2V321.208h8.965v3.248c.034,0,.034.034.068.034.1-.1.169-.2.27-.3a9.668,9.668,0,0,1,3.755-3.045,10.7,10.7,0,0,1,4.94-.778,10.119,10.119,0,0,1,2.808.575,8.787,8.787,0,0,1,3.925,2.808c.372.508.71,1.049,1.083,1.556a8.035,8.035,0,0,1,.44-.711,9.308,9.308,0,0,1,6.09-4.06,10.035,10.035,0,0,1,5.65.372,6.891,6.891,0,0,1,4.06,3.958,12.414,12.414,0,0,1,.913,3.789c.068,1.082.1,2.131.1,3.214V347.53h-9V334.606a14.506,14.506,0,0,0-.338-3.823,7.961,7.961,0,0,0-.575-1.489,2.848,2.848,0,0,0-2.334-1.489,3.93,3.93,0,0,0-3.485,1.184,4.372,4.372,0,0,0-.947,2,17.153,17.153,0,0,0-.338,4.161V347.5C478.206,347.462,475.195,347.462,472.184,347.462Z" transform="translate(-455.2 -304.902)"/>
      <path id="Path_2186" data-name="Path 2186" class="cls-1" d="M625.827,347.373h-8.965v-2.91c-.034,0-.034-.034-.068-.034-.034.068-.1.1-.135.169a7.7,7.7,0,0,1-5.21,3.383c-5.007.913-9.067-.744-12.213-4.736a14.223,14.223,0,0,1-2.842-7.24,15.006,15.006,0,0,1,.1-4.263,14.386,14.386,0,0,1,3.789-7.883,11.7,11.7,0,0,1,6.8-3.552,11.246,11.246,0,0,1,7.1,1.117,8.335,8.335,0,0,1,2.571,2.03c.034.034.034.068.068.135.034,0,.034-.034.068-.034v-2.47h9C625.827,329.814,625.827,338.577,625.827,347.373Zm-14.48-7.172c.474-.068.913-.068,1.387-.169a5.035,5.035,0,0,0,3.925-3.214,6.745,6.745,0,0,0,.237-4.466,5.322,5.322,0,0,0-2.741-3.451,6.145,6.145,0,0,0-4.026-.507,5.264,5.264,0,0,0-3.925,2.943,6.35,6.35,0,0,0-.575,3.789,5.515,5.515,0,0,0,1.759,3.586A5.818,5.818,0,0,0,611.347,340.2Z" transform="translate(-548.555 -304.813)"/>
    </g>
  </g>
</svg>
