<svg xmlns="http://www.w3.org/2000/svg" viewBox="0 0 133.35 72.546">
  <defs>
    <style>
      .cls-1 {
        fill: #2fa766;
      }
    </style>
  </defs>
  <g id="_x34_v2M9k.tif_1_" transform="translate(55)">
    <g id="Group_2171" data-name="Group 2171" transform="translate(-55 0)">
      <path id="Path_2135" data-name="Path 2135" class="cls-1" d="M163.55,49.715a13.437,13.437,0,0,0-1.439,1.27c-.889.8-1.777,1.608-2.666,2.37-.423.339-.846.719-1.27,1.1-.508.466-1.058.889-1.608,1.312-.592.423-1.143.889-1.735,1.354-.762.592-1.481,1.185-2.243,1.735-.889.635-1.82,1.27-2.708,1.947-.8.592-1.651,1.143-2.455,1.693-.719.508-1.439.973-2.158,1.439-.973.592-1.947,1.227-2.92,1.777-.931.55-1.9,1.1-2.835,1.608-.8.423-1.566.846-2.37,1.27-.592.3-1.227.592-1.82.889-.55.254-1.1.55-1.651.762-.55.254-1.1.466-1.65.677-.635.254-1.312.508-1.947.719l-1.65.508a11.875,11.875,0,0,1-1.312.339c-.212.042-.423.042-.592.085-.127,0-.3,0-.254.254h-3.259c.042-.169-.042-.169-.169-.169a4.133,4.133,0,0,1-.973-.254,2.239,2.239,0,0,1-.889-.466,5.6,5.6,0,0,1-.931-.762,5.932,5.932,0,0,1-1.1-1.947,7.318,7.318,0,0,1-.212-2.878,14.832,14.832,0,0,1,1.1-4.486c.381-.931.762-1.862,1.227-2.751.381-.677.762-1.4,1.185-2.031.423-.677.8-1.354,1.27-1.989.339-.508.719-1.016,1.058-1.566.846-1.27,1.82-2.455,2.666-3.724.423-.635.973-1.227,1.439-1.82.423-.55.889-1.143,1.312-1.693.508-.635.973-1.27,1.481-1.9.423-.508.889-.973,1.27-1.524.042-.085.169-.127.254-.169.042.254.212.254.381.254a11.311,11.311,0,0,1,1.693.042.456.456,0,0,1-.085.339,6.126,6.126,0,0,0-.719.762c-.677.8-1.439,1.608-2.158,2.412-1.4,1.693-2.793,3.386-4.105,5.163-.592.8-1.185,1.693-1.777,2.5a40.136,40.136,0,0,0-2.328,3.6,31.878,31.878,0,0,0-2.116,4.147,21.237,21.237,0,0,0-.973,2.751,9.371,9.371,0,0,0-.381,2.624,3.137,3.137,0,0,0,.931,2.539c.169.169.381.3.55.466a3,3,0,0,0,1.4.635,7.986,7.986,0,0,0,3,.042,12.094,12.094,0,0,0,2.708-.677c.3-.127.635-.169.973-.3.381-.169.762-.339,1.143-.466a24.048,24.048,0,0,0,2.666-1.143c.889-.423,1.777-.889,2.666-1.354,1.143-.55,2.243-1.185,3.3-1.82.889-.508,1.82-1.058,2.708-1.608l2.158-1.4c1.27-.8,2.539-1.693,3.809-2.582,1.1-.762,2.158-1.566,3.259-2.37,1.058-.8,2.116-1.65,3.174-2.455.846-.635,1.65-1.27,2.455-1.947a2.736,2.736,0,0,1,.381-.339c.508-.423,1.058-.846,1.566-1.27.55-.466,1.1-.931,1.608-1.4a3.736,3.736,0,0,0,.931-.889,3.59,3.59,0,0,0,1.1-1.016c.212-.254.55-.381.677-.719.212.042.3-.127.381-.254.508-.508,1.058-.973,1.566-1.481l3.428-3.3c.085-.085.254-.169.254-.339a1.746,1.746,0,0,0,.719-.635,21.939,21.939,0,0,0,1.735-1.693.861.861,0,0,0,.381-.254c1.058-1.058,2.158-2.074,3.216-3.132a2.34,2.34,0,0,0,.508-.592c.085,0,.127-.085.212-.127.592-.592,1.185-1.185,1.82-1.735.042-.042.085-.042.085-.085,1.143-1.143,2.285-2.243,3.428-3.386a.321.321,0,0,0,.085-.169,30.211,30.211,0,0,0,2.285-2.37,29.411,29.411,0,0,0,3.343-4.232,23.211,23.211,0,0,0,1.312-2.2c.423-.846.846-1.693,1.312-2.539.042-.085.042-.169.127-.169.127,0,.127.085.169.169a.964.964,0,0,0,1.481.381.652.652,0,0,0,.381-.55c0-.085.042-.127.042-.212a.794.794,0,0,0-.508-.973,1.5,1.5,0,0,0-.423-.085c-.085,0-.169,0-.169-.085-.042-.085.042-.169.085-.212a1.458,1.458,0,0,1,.973-.423,3.872,3.872,0,0,1,.677.042.37.37,0,0,0,.381-.212c.042-.085.127-.169.169-.254a30.357,30.357,0,0,0,1.989-3.639,21.188,21.188,0,0,0,1.735-4.994,7.78,7.78,0,0,0,.169-2.624,2.772,2.772,0,0,0-.8-1.777,3.706,3.706,0,0,0-1.016-.8,5.339,5.339,0,0,0-3.259-.339,28.3,28.3,0,0,0-3.174.677c-.719.212-1.439.423-2.158.677-.677.254-1.354.508-1.989.762-.3.127-.593.254-.931.423-.592.254-1.185.508-1.735.8l-1.777.889c-.466.212-.931.466-1.4.719-.635.381-1.312.719-1.947,1.1-.508.339-1.058.635-1.608.931-1.016.55-1.947,1.27-3,1.82a10.516,10.516,0,0,0-1.693,1.1c-.762.55-1.524,1.058-2.285,1.608-1.016.719-2.031,1.439-3.047,2.2l-1.27.889c-.8.592-1.608,1.27-2.412,1.862-1.016.762-1.989,1.608-2.962,2.37-.677.508-1.312,1.058-1.989,1.608-.085.042-.085.127-.127.212-1.143.085-2.285.169-3.428.169.127-.3.381-.423.592-.592.762-.635,1.524-1.27,2.285-1.862.762-.635,1.566-1.27,2.328-1.9.8-.635,1.608-1.227,2.37-1.82.592-.508,1.227-.973,1.862-1.481.466-.381.973-.762,1.481-1.143.973-.719,1.947-1.439,2.92-2.116.466-.339.973-.677,1.481-1.016.846-.592,1.693-1.143,2.581-1.65.889-.55,1.777-1.058,2.666-1.566,1.185-.677,2.328-1.354,3.513-1.989,1.143-.635,2.285-1.227,3.428-1.82l2.793-1.27a22.606,22.606,0,0,1,3.216-1.185c.931-.254,1.862-.55,2.835-.719a18.939,18.939,0,0,1,4.359-.339,4.808,4.808,0,0,1,3.132,1.185,4.426,4.426,0,0,1,1.016,1.439,6.933,6.933,0,0,1,.381,3.6,12.578,12.578,0,0,1-.762,3.259,29.052,29.052,0,0,1-1.82,4.063c-.635,1.143-1.227,2.243-1.947,3.3-.127.169-.085.339,0,.55a1.055,1.055,0,0,1,.127.719,3.763,3.763,0,0,1-1.185,2.285c-.719.8-1.439,1.693-2.2,2.5-.635.677-1.227,1.439-1.862,2.116-.423.466-.846.931-1.227,1.4-.8.931-1.566,1.862-2.412,2.708a2.325,2.325,0,0,0-.3.381,10.951,10.951,0,0,0-1.566,1.566,9,9,0,0,0-1.1,1.1,1.9,1.9,0,0,0-.55.466c-.508.508-1.058,1.016-1.566,1.566-.846.8-1.693,1.65-2.5,2.455a.428.428,0,0,0-.169.3c-.212,0-.254.169-.381.3a16.809,16.809,0,0,0-1.27,1.185c-.042.085-.085.127-.127.212-.254.042-.381.254-.508.381-1.27,1.185-2.539,2.412-3.809,3.6a5.075,5.075,0,0,0-.973.931,4.811,4.811,0,0,0-.677.635c-.55.466-1.058.973-1.566,1.439-.085.085-.127.169-.212.254-.127-.042-.169.085-.254.127-1.185,1.058-2.37,2.116-3.512,3.174C163.8,49.419,163.593,49.5,163.55,49.715Z" transform="translate(-80.307 -0.276)"/>
      <path id="Path_2136" data-name="Path 2136" class="cls-1" d="M28.127,25.224c.085.042.127-.042.127-.085a2.608,2.608,0,0,1,1.185-1.058,15.084,15.084,0,0,1,2.624-.973,46.966,46.966,0,0,1,5.417-1.016c1.735-.212,3.47-.381,5.205-.466q3.364-.19,6.729-.127c1.354,0,2.708.042,4.105.127q2.6.127,5.205.508a27.833,27.833,0,0,1,4.147.889,5.893,5.893,0,0,1,1.947.931c.085.085.212.169.3.254a.883.883,0,0,1-.042,1.27,2.831,2.831,0,0,1-.8.592,10.958,10.958,0,0,1-2.582.889,31.521,31.521,0,0,1-5.629.719,31.213,31.213,0,0,1-4.444-.169,10.469,10.469,0,0,1-2.539-.55,1.918,1.918,0,0,1-.8-.466c-.381-.381-.3-.719.169-.846.3-.085.635-.169.931-.254.169-.042.339-.127.3-.339a.362.362,0,0,0-.381-.3,4.225,4.225,0,0,0-2.751.719c-.466.339-.466.762-.042,1.185a3.5,3.5,0,0,0,.973.635,13.907,13.907,0,0,0,4.105,1.016,38.49,38.49,0,0,0,7.321.042,39.332,39.332,0,0,0,6.263-.973,17.665,17.665,0,0,0,3.555-1.227,3.672,3.672,0,0,0,.973-.677.916.916,0,0,0,0-1.439,2.926,2.926,0,0,0-.931-.677A13.008,13.008,0,0,0,65.707,22.3a57.566,57.566,0,0,0-8.041-1.185c-1.608-.127-3.174-.212-4.782-.3-2.328-.085-4.7-.127-7.025-.085a69.639,69.639,0,0,0-8.379.55c-.423.042-.889.127-1.312.212h-.212c-.3,0-.466-.085-.508-.3a.427.427,0,0,1,.3-.466,6.448,6.448,0,0,1,1.524-.508,46.745,46.745,0,0,1,6.433-.719q3.3-.19,6.6-.254c1.227-.042,2.5-.042,3.724,0,2.2.042,4.359.085,6.56.254,1.862.127,3.724.3,5.586.55a35.1,35.1,0,0,1,7.237,1.608,8.93,8.93,0,0,1,1.82.846,5.238,5.238,0,0,1,.762.592,1.288,1.288,0,0,1,0,1.947,6.057,6.057,0,0,1-1.312,1.016,21.113,21.113,0,0,1-3.851,1.439,66.073,66.073,0,0,1-7.11,1.439,45.663,45.663,0,0,1-5.332.592,51.668,51.668,0,0,1-7.237-.169A31.084,31.084,0,0,1,45.9,28.355a10.922,10.922,0,0,1-2.285-.973,2.584,2.584,0,0,1-.889-.762,1,1,0,0,1,.127-1.4,3.367,3.367,0,0,1,1.439-.762,13.55,13.55,0,0,1,3.174-.592A36.473,36.473,0,0,1,54.915,24a10.014,10.014,0,0,1,2.708.592,1.525,1.525,0,0,1,.635.423c.212.254.169.423-.042.677a1.747,1.747,0,0,1-.466.3c-.212.085-.423.169-.423.423,0,.169.212.254.592.254a4.589,4.589,0,0,0,2.116-.508,1.569,1.569,0,0,0,.719-.55.6.6,0,0,0-.085-.931,2.508,2.508,0,0,0-.8-.466,11.8,11.8,0,0,0-2.962-.8,44.751,44.751,0,0,0-6.306-.55c-1.989-.042-3.936,0-5.882.127a24.9,24.9,0,0,0-5.544.931,5.753,5.753,0,0,0-1.65.719,2.415,2.415,0,0,0-.592.55,1.017,1.017,0,0,0,0,1.185,2.553,2.553,0,0,0,.973.8,13.975,13.975,0,0,0,1.82.8,38.737,38.737,0,0,0,6.94,1.735,55.856,55.856,0,0,0,5.967.592c1.566.085,3.132.085,4.655.042,1.947-.085,3.936-.169,5.882-.381,2.074-.212,4.147-.508,6.221-.931a24.435,24.435,0,0,0,5.248-1.65,7.95,7.95,0,0,0,2.031-1.312,2.767,2.767,0,0,0,.973-1.735c0-.085.042-.169.042-.254a.384.384,0,0,1,.423-.339.42.42,0,0,1,.423.3,1.7,1.7,0,0,1,.042.8,2.655,2.655,0,0,1-.762,1.439,8,8,0,0,1-2.793,1.9,29.333,29.333,0,0,1-6.009,1.947,55.364,55.364,0,0,1-7.448,1.058c-2.285.169-4.528.254-6.813.212-2.5-.042-4.994-.127-7.533-.339-2.074-.169-4.147-.381-6.221-.677a47.756,47.756,0,0,1-8.379-1.82A15.24,15.24,0,0,1,29.65,27.3a3.322,3.322,0,0,1-1.524-1.524c-.042-.042-.042-.085-.127-.085A.606.606,0,0,0,28.127,25.224Z" transform="translate(-28 -11.206)"/>
      <path id="Path_2137" data-name="Path 2137" class="cls-1" d="M64.374,62.245c-.592,1.735-1.185,3.428-1.777,5.163s-1.185,3.428-1.735,5.163c-.085.254-.212.381-.466.339a3.428,3.428,0,0,0-.931,0,.39.39,0,0,1-.466-.3c-.466-1.185-.973-2.37-1.481-3.513-1.227-2.92-2.455-5.8-3.639-8.718-.677-1.608-1.354-3.174-1.989-4.782l-.254-.508a2.368,2.368,0,0,0-1.9-1.27,3.321,3.321,0,0,0-.592-.085c-.254,0-.339-.085-.339-.339V52.342c0-.212.085-.3.3-.254H57.6c.508,0,.508,0,.508.55v.889c0,.127-.042.212-.212.254-.085,0-.212.042-.3.042a.957.957,0,0,0-.8,1.4c.212.55.381,1.058.592,1.608,1.185,3.089,2.37,6.179,3.513,9.268.042.085.042.169.169.212.169-.508.339-.973.508-1.481.55-1.65,1.143-3.343,1.693-4.994a.723.723,0,0,0,0-.592c-.466-1.354-.931-2.666-1.439-4.02a2.588,2.588,0,0,0-.212-.508,1.268,1.268,0,0,0-1.1-.889H60.4c-.212-.042-.508.042-.677-.127-.127-.169-.042-.466-.042-.677,0-.3-.127-.635.085-.846.169-.169.55-.042.8-.042H67.59c.127,0,.212.042.212.169v1.27c0,.127-.042.169-.169.212-.169.042-.381.042-.55.085a.667.667,0,0,0-.508.931c.3.931.592,1.9.931,2.835.592,1.82,1.227,3.639,1.82,5.459.254.719.508,1.481.719,2.2,0,.042.042.085.085.127.212-.423.3-.846.466-1.27.592-1.777,1.143-3.6,1.735-5.375.339-1.1.719-2.2,1.058-3.3a1,1,0,0,0,.085-.339.945.945,0,0,0-.846-1.27c-.55-.127-.508-.042-.508-.592v-.846c0-.254.085-.3.3-.3h2.328A24.965,24.965,0,0,0,78.3,52c.931-.127,1.862-.212,2.793-.339.423-.042.423-.085.423.339v8.549c.169,0,.254-.127.381-.212a4.035,4.035,0,0,1,1.862-1.016,5.8,5.8,0,0,1,3.174.169,3.47,3.47,0,0,1,2.37,3.343v6.179a7.492,7.492,0,0,0,.042.973.886.886,0,0,0,.846.889c.085,0,.212.042.3.042.466.042.466.042.466.55v.762c0,.212-.085.3-.3.254H84.349c-.381,0-.381,0-.381-.381v-.973c0-.169.085-.254.212-.254a.155.155,0,0,0,.127-.042c.677-.169.889-.381.889-1.1v-6.56a2.4,2.4,0,0,0-.127-.762,1.555,1.555,0,0,0-2.751-.55,3.127,3.127,0,0,0-.592,1.185,5.091,5.091,0,0,0-.212,1.608V69.9a.923.923,0,0,0,.846.931c.592.127.592.127.592.719v.8c0,.169-.085.254-.254.212H75.715c-.127,0-.212-.042-.212-.212V71.132a.268.268,0,0,1,.212-.254c.212-.042.466-.085.677-.127a1.045,1.045,0,0,0,.762-.846,5.21,5.21,0,0,0,.085-.846V54.289c0-.592-.042-.592-.592-.508a1.482,1.482,0,0,0-1.227.931,14.587,14.587,0,0,0-.592,1.777L71.907,65.5c-.719,2.285-1.481,4.571-2.2,6.856a.785.785,0,0,0-.085.3c-.042.212-.127.254-.339.254h-.931c-.212,0-.254-.085-.339-.254l-1.4-3.936c-.762-2.074-1.481-4.147-2.243-6.263C64.543,62.414,64.543,62.287,64.374,62.245Z" transform="translate(-39.998 -29.903)"/>
      <path id="Path_2138" data-name="Path 2138" class="cls-1" d="M291.5,76.523a7.456,7.456,0,0,1,1.4-4.613,6.173,6.173,0,0,1,5.248-2.412,6.321,6.321,0,0,1,6.136,5.417,8.211,8.211,0,0,1-.423,4.4,6.493,6.493,0,0,1-10.368,2.158,6.451,6.451,0,0,1-1.9-3.766C291.542,77.285,291.5,76.819,291.5,76.523Zm8.422-.127V73.433a2.556,2.556,0,0,0-.3-1.27,1.722,1.722,0,0,0-1.735-1.1,1.831,1.831,0,0,0-1.439.889,3.028,3.028,0,0,0-.423,1.735V79.1a6.121,6.121,0,0,0,.169,1.227,1.915,1.915,0,0,0,1.735,1.439,1.83,1.83,0,0,0,1.735-1.354,3.379,3.379,0,0,0,.212-1.1C299.879,78.3,299.879,77.327,299.922,76.4Z" transform="translate(-179.988 -40.202)"/>
      <path id="Path_2139" data-name="Path 2139" class="cls-1" d="M199.123,52.352c1.143,0,2.285-.085,3.428-.169a8.039,8.039,0,0,0,2.243-.381c.466-.127.466-.127.466.339v17.9a.857.857,0,0,0,.719.8,2.742,2.742,0,0,0,.846.085c.212,0,.339.042.3.3v1.058c0,.3,0,.3-.339.3h-7.618c-.127,0-.169-.042-.169-.169V70.888h.508a2.123,2.123,0,0,0,.508-.085c.635-.127.889-.339.973-.973V55.4a4.662,4.662,0,0,0-.085-.762.855.855,0,0,0-.677-.719,2.58,2.58,0,0,0-1.143-.127c-.339,0-.381-.042-.381-.381v-.889A.606.606,0,0,1,199.123,52.352Z" transform="translate(-126.46 -29.954)"/>
      <path id="Path_2140" data-name="Path 2140" class="cls-1" d="M329.733,51.542V69.317a2.6,2.6,0,0,0,.042.592.865.865,0,0,0,.8.8,4.688,4.688,0,0,0,.8.085c.212,0,.3.042.3.254v1.143c0,.212-.085.254-.254.254h-7.66c-.169,0-.212-.085-.212-.254V71.009c0-.169.085-.212.254-.212a5.784,5.784,0,0,0,.8-.085.994.994,0,0,0,.973-1.016,3.874,3.874,0,0,0,.042-.719v-13.2a9.641,9.641,0,0,0-.085-1.1,1.014,1.014,0,0,0-.973-.973,8.215,8.215,0,0,0-1.016-.085c-.212,0-.254-.085-.254-.254v-.846c0-.3,0-.3.339-.339l2.412-.127a13.007,13.007,0,0,0,3.6-.55Z" transform="translate(-198.33 -29.822)"/>
      <path id="Path_2141" data-name="Path 2141" class="cls-1" d="M257,76.933a.428.428,0,0,1,.169-.3c.846-.8,1.693-1.65,2.5-2.455.508-.508,1.058-1.016,1.566-1.566a2,2,0,0,1,.55-.466,4.511,4.511,0,0,0-.254,1.27v5.755a3.052,3.052,0,0,0,.508,1.693,1.679,1.679,0,0,0,2.624.212,2.7,2.7,0,0,0,.719-1.862V73.251a2.722,2.722,0,0,0-.423-1.481,1.778,1.778,0,0,0-2.116-.8,10.955,10.955,0,0,1,1.566-1.566,10.408,10.408,0,0,1,1.227.3,6.232,6.232,0,0,1,3.724,3.513,7.409,7.409,0,0,1-.254,6.475,5.915,5.915,0,0,1-4.613,3.259,6.6,6.6,0,0,1-4.1-.677,6.218,6.218,0,0,1-2.793-3A6.492,6.492,0,0,1,257,76.933Z" transform="translate(-160.088 -40.147)"/>
      <path id="Path_2142" data-name="Path 2142" class="cls-1" d="M174.039,71.619a.883.883,0,0,0-.677-.339,1.9,1.9,0,0,0-.466-.042c-.212,0-.3-.085-.3-.3V70.1c0-.212.085-.3.3-.3.719,0,1.4-.042,2.116-.085a3.48,3.48,0,0,0,1.143-.085,7.281,7.281,0,0,0,1.354-.085c.3-.042.635-.085.931-.127.127,0,.212.042.212.169V69.8c-.042.085-.085.169,0,.254s.127,0,.212-.042a1.485,1.485,0,0,0,.339-.212,3.939,3.939,0,0,1,2.2-.508,2.485,2.485,0,0,1,1.566,4.359,1.963,1.963,0,0,1-3-.592,2.756,2.756,0,0,1-.085-1.65c0-.085.085-.169,0-.3a2.051,2.051,0,0,0-1.1,1.481,6.041,6.041,0,0,0-.127,1.227v6.136a.913.913,0,0,0,.8.889,2.185,2.185,0,0,0,.466.085c.212,0,.3.085.3.3a8.829,8.829,0,0,0,0,1.058c0,.3,0,.3-.339.3h-6.813c-.212,0-.254-.085-.254-.254v-.762c0-.592,0-.592.593-.719a1.028,1.028,0,0,0,.973-1.143v-5.84c0-.508.042-1.016,0-1.523A.786.786,0,0,0,174.039,71.619Z" transform="translate(-111.406 -40.081)"/>
      <path id="Path_2143" data-name="Path 2143" class="cls-1" d="M154.128,82.873c-.55-.042-1.143,0-1.693-.042-.169,0-.339,0-.381-.254a4.793,4.793,0,0,0,.042-1.1c0-.339,0-.339.339-.381a2.232,2.232,0,0,0,.508-.127.9.9,0,0,0,.677-.762c0-.212.042-.423.042-.592V73.266a5.4,5.4,0,0,0-.042-.8,1.183,1.183,0,0,0-1.1-1.1,2.06,2.06,0,0,0-.508-.042.2.2,0,0,1-.212-.212v-.973c0-.212.085-.254.254-.254.889-.042,1.777-.042,2.624-.085a19.539,19.539,0,0,0,2.708-.254.537.537,0,0,0,.254-.042c.127,0,.169.042.169.169V78.3c0,.042.042.127.042.169a6.875,6.875,0,0,0-.042,1.608.879.879,0,0,0,.8.889,2.477,2.477,0,0,0,.55.085c.169,0,.212.085.212.254v1.016c0,.381,0,.423-.423.423h-4.105C154.635,82.831,154.382,82.788,154.128,82.873Z" transform="translate(-99.408 -40.205)"/>
      <path id="Path_2144" data-name="Path 2144" class="cls-1" d="M183.5,60.867v-.212c0-.169-.085-.212-.212-.169-.3.042-.635.085-.931.127A7.282,7.282,0,0,1,181,60.7a1.624,1.624,0,0,1,.55-.635c1.1-1.058,2.243-2.116,3.386-3.132.55-.466,1.143-.973,1.693-1.4.466-.381.931-.846,1.4-1.27a7.229,7.229,0,0,1,.592-.466v.889c0,.339,0,.381.381.381a3.515,3.515,0,0,1,1.143.127c-.254.212-.55.423-.8.677-.55.508-1.1,1.016-1.693,1.481-.719.592-1.439,1.227-2.116,1.862-.423.381-.889.762-1.312,1.143C183.962,60.529,183.835,60.825,183.5,60.867Z" transform="translate(-116.251 -31.149)"/>
      <path id="Path_2145" data-name="Path 2145" class="cls-1" d="M159.924,57.112a2.377,2.377,0,0,1-2.455,2.328,2.412,2.412,0,0,1-2.37-2.455,2.37,2.37,0,0,1,2.455-2.285A2.522,2.522,0,0,1,159.924,57.112Z" transform="translate(-101.312 -31.668)"/>
      <path id="Path_2146" data-name="Path 2146" class="cls-1" d="M166.042,81.513c0-.042-.042-.127-.042-.169V78.763c.042.085.127.085.212,0,.423-.423.846-.846,1.227-1.312.677-.719,1.354-1.439,2.074-2.116.254-.212.423-.508.762-.635a.983.983,0,0,1,.381.8,9.155,9.155,0,0,1,0,1.523,1.477,1.477,0,0,0-.635.508c-.592.635-1.227,1.227-1.82,1.862s-1.227,1.227-1.777,1.9C166.3,81.513,166.212,81.556,166.042,81.513Z" transform="translate(-107.599 -43.204)"/>
      <path id="Path_2147" data-name="Path 2147" class="cls-1" d="M224.7,112.009c.042-.212.254-.3.423-.423,1.185-1.058,2.328-2.116,3.513-3.174.085-.085.127-.169.254-.127a6.407,6.407,0,0,0,.085,1.27c.085.466.339.635.762.762a2.259,2.259,0,0,0,.931.085c.212,0,.254.085.254.254v1.1c0,.212-.085.3-.3.254H224.7Z" transform="translate(-141.457 -62.569)"/>
      <path id="Path_2148" data-name="Path 2148" class="cls-1" d="M240.3,96.209a5.078,5.078,0,0,1,.973-.931c1.27-1.227,2.539-2.412,3.809-3.6.169-.127.3-.339.508-.381a7.561,7.561,0,0,1-.381,1.947,3.4,3.4,0,0,1-2.031,2.328,11.2,11.2,0,0,1-2.666.677A.317.317,0,0,0,240.3,96.209Z" transform="translate(-150.455 -52.779)"/>
      <path id="Path_2149" data-name="Path 2149" class="cls-1" d="M222.22,87.262a5.989,5.989,0,0,0,.085-1.227V73.762a4.825,4.825,0,0,0-.085-1.1,1.083,1.083,0,0,0-.973-.973,3.266,3.266,0,0,0-.635-.085c-.169,0-.212-.085-.212-.212v-.973a.224.224,0,0,1,.254-.254c.592,0,1.143-.042,1.735-.042a29.575,29.575,0,0,0,3.851-.339c.169-.042.212,0,.212.169,0,.212.042.466.042.677a.8.8,0,0,0,.466-.212,4.719,4.719,0,0,1,5.671.508,5.819,5.819,0,0,1,1.65,3.089,9.843,9.843,0,0,1,.169,1.566,1.723,1.723,0,0,1-.508.592c-1.058,1.058-2.158,2.074-3.216,3.132a1,1,0,0,1-.381.254V73.678a2.659,2.659,0,0,0-.466-1.608,1.727,1.727,0,0,0-2.962.127,3.6,3.6,0,0,0-.381,1.862v5.121a3.617,3.617,0,0,0,.169,1.354,1.949,1.949,0,0,0,1.227,1.4c.042.169-.127.254-.254.339l-3.428,3.3c-.508.508-1.016.973-1.566,1.481C222.474,87.135,222.389,87.3,222.22,87.262Z" transform="translate(-138.977 -40.32)"/>
      <path id="Path_2150" data-name="Path 2150" class="cls-1" d="M258.291,74.139c-.042-.212.127-.381.212-.55A5.758,5.758,0,0,1,261.93,70.5a.22.22,0,0,1-.085.169c-1.143,1.143-2.285,2.243-3.428,3.386A.325.325,0,0,0,258.291,74.139Z" transform="translate(-160.829 -40.781)"/>
      <path id="Path_2151" data-name="Path 2151" class="cls-1" d="M220.5,113.973v-.635c0-.127.042-.212.212-.212L221.6,113A4.127,4.127,0,0,1,220.5,113.973Z" transform="translate(-139.035 -65.296)"/>
    </g>
  </g>
</svg>
